<svg xmlns="http://www.w3.org/2000/svg" width="150" height="150" viewBox="0 0 150 150">
  <g id="bakery" transform="translate(-1910 1914)">
    <g id="Group_173" data-name="Group 173" transform="translate(1146 17)">
      <path id="Path_99" data-name="Path 99" d="M0,0H150V150H0Z" transform="translate(764 -1931)" fill="none"/>
    </g>
    <g id="Group_189" data-name="Group 189">
      <g id="food_2_" data-name="food (2)" transform="translate(1923.002 -1875.013)">
        <path id="Path_207" data-name="Path 207" d="M78.089,48.6a15.9,15.9,0,0,1-15.9,15.9H17.9a15.9,15.9,0,0,1-4.37-31.2l4.123-1.178a81.511,81.511,0,0,1,44.776,0l4.123,1.178A15.9,15.9,0,0,1,78.089,48.6Z" transform="translate(0.269 6.164)" fill="#d8923e"/>
        <g id="Group_175" data-name="Group 175" transform="translate(12.488 35.164)">
          <path id="Path_208" data-name="Path 208" d="M15.023,31.579a108.231,108.231,0,0,1-1.055,12.594,1.462,1.462,0,0,1-2.894,0,108.238,108.238,0,0,1-1.006-11.086l-.01-.027c.429-.164.869-.311,1.316-.439Z" transform="translate(-10.058 -28.308)" fill="#bc7f35"/>
          <path id="Path_209" data-name="Path 209" d="M25.073,29.5v1.812a108.278,108.278,0,0,1-1.089,15.321,1.462,1.462,0,0,1-2.894,0A108.278,108.278,0,0,1,20,31.312V30.3Q22.524,29.82,25.073,29.5Z" transform="translate(-7.392 -28.866)" fill="#bc7f35"/>
          <path id="Path_210" data-name="Path 210" d="M35.073,29.039v4.943A108.278,108.278,0,0,1,33.983,49.3a1.462,1.462,0,0,1-2.894,0A108.278,108.278,0,0,1,30,33.983V29.039Q31.267,29,32.536,29T35.073,29.039Z" transform="translate(-4.71 -29)" fill="#bc7f35"/>
          <path id="Path_211" data-name="Path 211" d="M45.073,30.3v1.013a108.277,108.277,0,0,1-1.089,15.321,1.462,1.462,0,0,1-2.894,0A108.278,108.278,0,0,1,40,31.312V29.5q2.547.32,5.073.8Z" transform="translate(-2.029 -28.866)" fill="#bc7f35"/>
          <path id="Path_212" data-name="Path 212" d="M54.983,33.087a108.238,108.238,0,0,1-1.006,11.086,1.462,1.462,0,0,1-2.9,0,108.509,108.509,0,0,1-1.055-12.594l3.648,1.042q.639.183,1.254.415Z" transform="translate(0.66 -28.308)" fill="#bc7f35"/>
        </g>
        <path id="Path_213" data-name="Path 213" d="M60.875,38.465,65.19,34.15A15.9,15.9,0,0,0,46.221,9l-3.747,2.082A81.491,81.491,0,0,0,13.428,38.369l1.165-.334a81.49,81.49,0,0,1,44.775,0Z" transform="translate(3.333 0.265)" fill="#8f6128"/>
        <path id="Path_214" data-name="Path 214" d="M13.427,33.014l1.165-.334q3.493-1,7.056-1.68l0,.011q-1.309-1.406-2.669-2.766L17.7,26.965q-2.271,2.926-4.274,6.049Z" transform="translate(3.333 5.618)" fill="#bc7f35"/>
        <path id="Path_215" data-name="Path 215" d="M29.628,31.71q-2.8-2.439-5.425-5.065l-3.5-3.5q.867-.924,1.765-1.821t1.821-1.765l3.5,3.5a108.2,108.2,0,0,1,7.625,8.474c-.128,0-.257,0-.387,0Q32.323,31.53,29.628,31.71Z" transform="translate(5.285 3.634)" fill="#bc7f35"/>
        <path id="Path_216" data-name="Path 216" d="M32.263,13.269l.717.717a108.418,108.418,0,0,1,10.064,11.6A1.462,1.462,0,0,1,41,27.636a108.256,108.256,0,0,1-11.6-10.064l-1.281-1.281q2.026-1.577,4.151-3.022Z" transform="translate(7.271 1.946)" fill="#bc7f35"/>
        <path id="Path_217" data-name="Path 217" d="M41.241,8.114a108.3,108.3,0,0,1,7.127,8.55,1.462,1.462,0,0,1-2.047,2.047,108.474,108.474,0,0,1-9.651-8.159l3.318-1.843q.611-.34,1.242-.62Z" transform="translate(9.566 0.557)" fill="#bc7f35"/>
        <path id="Path_218" data-name="Path 218" d="M67.172,38.257l-.543-.155,2.792-2.791A17.173,17.173,0,0,0,48.938,8.157L45.19,10.24a82.526,82.526,0,0,0-29.221,27.3l-2.516.719a17.171,17.171,0,0,0,4.719,33.682H62.453a17.172,17.172,0,0,0,4.719-33.684ZM66.8,40.8c-.16,3.354-.462,6.728-.935,10.044a.2.2,0,0,1-.384,0,107.373,107.373,0,0,1-.973-10.713l1.964.561C66.586,40.728,66.692,40.771,66.8,40.8ZM50.17,10.374c.1-.056.207-.1.309-.155,2.256,2.483,4.428,5.08,6.441,7.762a.2.2,0,0,1-.018.254.189.189,0,0,1-.254.018,107.463,107.463,0,0,1-8.263-6.887Zm-4.113,2.294a109.83,109.83,0,0,0,9.071,7.615,2.746,2.746,0,0,0,3.57-.254,2.746,2.746,0,0,0,.254-3.569c-1.877-2.5-3.9-4.922-5.991-7.26A14.624,14.624,0,0,1,67.628,33.517L63.839,37.3l-.789-.226a82.819,82.819,0,0,0-21.736-3.151c-2.308-2.823-4.768-5.562-7.34-8.134L31.42,23.24q1.883-1.714,3.868-3.3l.479.479A109.981,109.981,0,0,0,47.506,30.595a2.744,2.744,0,0,0,3.569-.254,2.744,2.744,0,0,0,.254-3.569,110.216,110.216,0,0,0-9.81-11.355q2.22-1.45,4.539-2.749Zm5.67,24.585c.847.122,1.692.254,2.535.4a107.342,107.342,0,0,1-1.075,15.1.2.2,0,0,1-.384,0A107.467,107.467,0,0,1,51.727,37.61Zm-12.682-.8c.422-.006.845-.022,1.268-.022s.845.015,1.268.022v3.693A107.4,107.4,0,0,1,40.5,55.287a.2.2,0,0,1-.384,0,107.467,107.467,0,0,1-1.075-15.141Zm.339-19.594A107.5,107.5,0,0,1,49.3,28.295a.2.2,0,0,1-.019.254.192.192,0,0,1-.254.019,107.456,107.456,0,0,1-11.467-9.945l-.254-.254q1.029-.77,2.079-1.509Zm-9.816,8.117,2.611,2.611C34.2,29.612,36.134,31.759,38,33.95c-.87.024-1.739.065-2.607.115-1.712-1.507-3.4-3.075-5.005-4.685l-2.6-2.6c.294-.3.573-.621.872-.921s.609-.587.913-.881Zm-8.15,9.785c.358.358.7.729,1.054,1.092q-1.372.3-2.733.649c.469-.668.954-1.324,1.443-1.978Zm4,.5c-.729-.772-1.461-1.541-2.212-2.292l-.479-.479q1.59-1.988,3.306-3.867l2.554,2.554c1.075,1.075,2.189,2.127,3.315,3.163Q28.648,34.668,25.423,35.259ZM28.9,37.253v.358a107.28,107.28,0,0,1-1.077,15.141.2.2,0,0,1-.384,0,107.533,107.533,0,0,1-1.075-15.1c.843-.148,1.689-.28,2.536-.4ZM16.114,40.135a107.373,107.373,0,0,1-.973,10.713.2.2,0,0,1-.384,0c-.473-3.318-.775-6.69-.935-10.044.11-.034.217-.077.328-.109ZM62.453,69.4H18.173A14.624,14.624,0,0,1,11.326,41.85c.176,3.129.479,6.267.921,9.356a2.73,2.73,0,0,0,5.406,0,110.007,110.007,0,0,0,1.03-11.8q2.559-.717,5.155-1.266a109.753,109.753,0,0,0,1.092,14.964,2.731,2.731,0,0,0,5.406,0,110.016,110.016,0,0,0,1.1-15.5v-.678q2.528-.282,5.073-.4v3.613a109.877,109.877,0,0,0,1.1,15.5,2.731,2.731,0,0,0,5.406,0,110.011,110.011,0,0,0,1.1-15.5V36.534q2.543.12,5.073.4v.678a109.877,109.877,0,0,0,1.1,15.5,2.731,2.731,0,0,0,5.406,0,110.16,110.16,0,0,0,1.092-14.964q2.6.544,5.155,1.266a110.007,110.007,0,0,0,1.03,11.8,2.73,2.73,0,0,0,5.4,0c.441-3.089.744-6.228.921-9.356A14.623,14.623,0,0,1,62.453,69.4Z" transform="translate(0 0)"/>
      </g>
      <g id="food_3_" data-name="food (3)" transform="translate(1968 -1889.413)">
        <g id="Group_186" data-name="Group 186" transform="translate(1.085 14.496)">
          <g id="Group_176" data-name="Group 176">
            <path id="Path_219" data-name="Path 219" d="M53.518,36.818C64.551,15.412-6.619,16.225,10.689,39.265V68.412A1.618,1.618,0,0,0,12.3,70.027H31.732c0-1.486,18.413-28.564,21.786-33.209Z" transform="translate(-7.962 -21.352)" fill="#db885e" fill-rule="evenodd"/>
          </g>
          <g id="Group_177" data-name="Group 177" transform="translate(4.774 4.771)">
            <path id="Path_220" data-name="Path 220" d="M61.963,84.927c-8.018-10.679,2.968-16.581,15.97-17.713l.455-.607c.782-1.039,2.163-3.14,1.661-4.548-.638-1.793-3.855-3.206-5.474-3.778a40.182,40.182,0,0,0-13.013-1.949,40.221,40.221,0,0,0-13.017,1.949c-1.618.572-4.832,1.984-5.47,3.778-.506,1.408.879,3.509,1.657,4.548l.957,1.272V95.338a.427.427,0,0,0,.428.428H61.963Z" transform="translate(-42.966 -56.332)" fill="#f8d2ab" fill-rule="evenodd"/>
          </g>
          <g id="Group_178" data-name="Group 178" transform="translate(21.046 15.453)">
            <path id="Path_221" data-name="Path 221" d="M206.284,152.565c8.738-11.637-5.093-17.6-19.5-17.9a53.548,53.548,0,0,0-5.816.187c-13,1.132-23.988,7.034-15.97,17.713v29.148a1.622,1.622,0,0,0,1.618,1.619h38.052a1.622,1.622,0,0,0,1.618-1.619V152.565Z" transform="translate(-162.271 -134.652)" fill="#db885e" fill-rule="evenodd"/>
          </g>
          <g id="Group_179" data-name="Group 179" transform="translate(25.819 20.224)">
            <path id="Path_222" data-name="Path 222" d="M232.691,179.91c.778-1.035,2.163-3.136,1.661-4.548-.642-1.794-3.855-3.2-5.474-3.778a44.43,44.43,0,0,0-26.031,0c-1.618.576-4.832,1.984-5.474,3.778-.5,1.412.883,3.513,1.661,4.548l.957,1.276v27.459a.425.425,0,0,0,.424.424H231.31a.425.425,0,0,0,.424-.424V181.186Z" transform="translate(-197.267 -169.635)" fill="#f8d2ab" fill-rule="evenodd"/>
          </g>
          <g id="Group_180" data-name="Group 180" transform="translate(12.582 27.48)">
            <path id="Path_223" data-name="Path 223" d="M111.4,239.559V228.72a12.506,12.506,0,0,1-2.673-5.886q-.823,1.978-1.735,3.98a115.556,115.556,0,0,1-6.781,12.745H111.4Z" transform="translate(-100.212 -222.834)" fill="#ffbb8b" fill-rule="evenodd"/>
          </g>
          <g id="Group_181" data-name="Group 181" transform="translate(9.637 44.205)">
            <path id="Path_224" data-name="Path 224" d="M92.752,349.934v-4.47H81.563q-1.459,2.358-2.945,4.47Z" transform="translate(-78.618 -345.464)" fill="#c57142" fill-rule="evenodd"/>
          </g>
          <g id="Group_182" data-name="Group 182" transform="translate(23.447 4.938)">
            <path id="Path_225" data-name="Path 225" d="M179.88,73.941c3.276-3.19,9.508-5.077,16.293-5.668l.455-.607c.782-1.039,2.163-3.14,1.661-4.548-.638-1.793-3.855-3.206-5.474-3.778a35.785,35.785,0,0,0-8.874-1.782A81.84,81.84,0,0,1,179.88,73.941Z" transform="translate(-179.88 -57.558)" fill="#ffbb8b" fill-rule="evenodd"/>
          </g>
          <g id="Group_183" data-name="Group 183" transform="translate(27.509 0.184)">
            <path id="Path_226" data-name="Path 226" d="M227.708,37.982C232.438,28.8,222.047,23.708,210,22.7a42.637,42.637,0,0,1-.342,4.754,35.781,35.781,0,0,1,8.874,1.782c1.618.572,4.836,1.984,5.474,3.778.5,1.408-.879,3.509-1.661,4.548l-.455.607A53.517,53.517,0,0,1,227.708,37.982Z" transform="translate(-209.66 -22.7)" fill="#c57142" fill-rule="evenodd"/>
          </g>
          <g id="Group_184" data-name="Group 184" transform="translate(37.009 20.99)">
            <path id="Path_227" data-name="Path 227" d="M302.593,210.86V186.038l.957-1.276c.778-1.035,2.163-3.136,1.661-4.548-.642-1.794-3.855-3.2-5.474-3.778a30.769,30.769,0,0,0-4.435-1.183,101.3,101.3,0,0,1-7.7,23.565,111.9,111.9,0,0,1-8.29,15.1h22.852a.425.425,0,0,0,.424-.424V210.86Z" transform="translate(-279.317 -175.254)" fill="#ffbb8b" fill-rule="evenodd"/>
          </g>
          <g id="Group_185" data-name="Group 185" transform="translate(33.85 16.263)">
            <path id="Path_228" data-name="Path 228" d="M287.364,186.845V157.7c7.061-9.4-.615-15.1-11.426-17.1-.128,1.486-.342,3.07-.638,4.727a30.752,30.752,0,0,1,4.435,1.183c1.618.576,4.832,1.984,5.474,3.778.5,1.412-.883,3.513-1.661,4.548l-.957,1.276v27.459a.425.425,0,0,1-.424.424H259.314c-1.046,1.591-2.1,3.085-3.159,4.474h29.59A1.622,1.622,0,0,0,287.364,186.845Z" transform="translate(-256.155 -140.595)" fill="#c57142" fill-rule="evenodd"/>
          </g>
        </g>
        <g id="Group_187" data-name="Group 187" transform="translate(0 13.413)">
          <path id="Path_229" data-name="Path 229" d="M224.748,106.588h-.02a1.023,1.023,0,0,0,0,2.046h.02a1.023,1.023,0,1,0,0-2.046Z" transform="translate(-193.195 -93.88)"/>
          <path id="Path_230" data-name="Path 230" d="M113.619,121.437h.02a1.023,1.023,0,0,0,0-2.046h-.02a1.023,1.023,0,0,0,0,2.046Z" transform="translate(-97.239 -104.937)"/>
          <path id="Path_231" data-name="Path 231" d="M168.45,125.192h-.02a1.023,1.023,0,1,0,0,2.046h.02a1.023,1.023,0,0,0,0-2.046Z" transform="translate(-144.576 -109.947)"/>
          <path id="Path_232" data-name="Path 232" d="M116.524,192.181h-.02a1.023,1.023,0,1,0,0,2.046h.02a1.023,1.023,0,1,0,0-2.046Z" transform="translate(-99.732 -167.799)"/>
          <path id="Path_233" data-name="Path 233" d="M382.306,244.267h.019a1.023,1.023,0,1,0,0-2.046h-.019a1.023,1.023,0,1,0,0,2.046Z" transform="translate(-329.281 -211.014)"/>
          <path id="Path_234" data-name="Path 234" d="M288.971,242.695h.023a1.023,1.023,0,0,0,0-2.046h-.023a1.023,1.023,0,1,0,0,2.046Z" transform="translate(-248.675 -209.657)"/>
          <path id="Path_235" data-name="Path 235" d="M383.468,315.668h-.02a1.023,1.023,0,0,0,0,2.046h.02a1.023,1.023,0,0,0,0-2.046Z" transform="translate(-330.268 -274.444)"/>
          <path id="Path_236" data-name="Path 236" d="M316.463,333.975h.019a1.023,1.023,0,1,0,0-2.046h-.019a1.023,1.023,0,1,0,0,2.046Z" transform="translate(-272.418 -288.487)"/>
          <path id="Path_237" data-name="Path 237" d="M339.068,274.589h.019a1.023,1.023,0,1,0,0-2.046h-.019a1.023,1.023,0,1,0,0,2.046Z" transform="translate(-291.94 -237.201)"/>
          <path id="Path_238" data-name="Path 238" d="M270.939,296.823h.023a1.023,1.023,0,1,0,0-2.046h-.023a1.023,1.023,0,1,0,0,2.046Z" transform="translate(-233.103 -256.403)"/>
          <path id="Path_239" data-name="Path 239" d="M69.95,40.8a8.41,8.41,0,0,0-3-6.009C63.286,31.458,56.4,29.339,48.21,28.958c1.521-4.1.3-7.824-3.525-10.592a26.041,26.041,0,0,0-9.648-3.886,52.037,52.037,0,0,0-12.087-1.047c-9.129.24-16.76,2.6-20.414,6.325A8.173,8.173,0,0,0,0,25.641a12.354,12.354,0,0,0,2.732,7.078v7.19a1.023,1.023,0,0,0,2.046,0V32.382a1.024,1.024,0,0,0-.2-.614C1.42,27.571,1.227,24.013,4,21.191c3.242-3.3,10.525-5.49,19.008-5.713,8.451-.224,16.3,1.519,20.481,4.546,3.275,2.369,4.126,5.353,2.538,8.875-.168,0-.336,0-.505,0q-1.323,0-2.607.058c.85-1.383,1.486-3,1.008-4.343-.826-2.321-4.546-3.855-6.1-4.406a41.467,41.467,0,0,0-13.38-2.012A41.507,41.507,0,0,0,11.053,20.2c-1.56.551-5.277,2.083-6.1,4.4-.5,1.393.107,3.249,1.806,5.517l.753,1V58.294a1.453,1.453,0,0,0,1.452,1.452H23.814v2.433H5.372a.6.6,0,0,1-.595-.595V44.859a1.023,1.023,0,0,0-2.046,0V61.584a2.643,2.643,0,0,0,2.64,2.64H23.814V77.066a2.647,2.647,0,0,0,2.644,2.644H43.012a1.023,1.023,0,0,0,0-2.046H26.458a.6.6,0,0,1-.6-.6v-29.2a1.022,1.022,0,0,0-.2-.614c-3.291-4.381-3.353-8.064-.186-10.946,7.871-7.163,32.232-7.163,40.1,0,3.167,2.882,3.1,6.565-.186,10.946a1.022,1.022,0,0,0-.2.614v29.2a.6.6,0,0,1-.6.6H47.775a1.023,1.023,0,1,0,0,2.046H64.581a2.647,2.647,0,0,0,2.644-2.644V48.2c1.893-2.6,2.809-5.093,2.725-7.4ZM40.3,29.134h0c-7.067.663-12.926,2.673-16.2,5.656a8.409,8.409,0,0,0-3,6.009c-.084,2.308.832,4.8,2.725,7.4v9.5H9.556V30.784a1.024,1.024,0,0,0-.205-.615L8.393,28.9c-1.4-1.868-1.7-3.083-1.515-3.6.407-1.143,2.733-2.412,4.859-3.164a39.463,39.463,0,0,1,12.7-1.894,39.427,39.427,0,0,1,12.7,1.894c2.127.751,4.455,2.021,4.861,3.164.232.652-1.7,3.837-1.7,3.837Z" transform="translate(0 -13.413)"/>
          <path id="Path_240" data-name="Path 240" d="M193.825,203.526h30.951a1.449,1.449,0,0,0,1.448-1.448V174.909l.754-1c1.7-2.259,2.308-4.114,1.81-5.516-.826-2.308-4.544-3.849-6.105-4.4a45.511,45.511,0,0,0-26.764,0c-1.56.555-5.278,2.1-6.1,4.406-.5,1.4.112,3.254,1.81,5.513l.754,1.006v27.169a1.449,1.449,0,0,0,1.447,1.448Zm-2.085-34.448c.407-1.136,2.736-2.408,4.863-3.165a43.51,43.51,0,0,1,25.394,0c2.128.757,4.457,2.029,4.863,3.163.232.652-.364,2.065-1.519,3.6l-.959,1.279a1.023,1.023,0,0,0-.2.614V201.48H194.423V174.568a1.022,1.022,0,0,0-.2-.614l-.96-1.279C192.105,171.14,191.509,169.728,191.74,169.078Z" transform="translate(-163.78 -141.711)"/>
          <path id="Path_241" data-name="Path 241" d="M282.222,383.2H282.2a1.023,1.023,0,0,0,0,2.046h.023a1.023,1.023,0,1,0,0-2.046Z" transform="translate(-242.827 -332.764)"/>
          <path id="Path_242" data-name="Path 242" d="M372.675,380.958h.02a1.023,1.023,0,1,0,0-2.046h-.02a1.023,1.023,0,1,0,0,2.046Z" transform="translate(-320.963 -329.063)"/>
          <path id="Path_243" data-name="Path 243" d="M112.5,266.484h-.023a1.023,1.023,0,1,0,0,2.046h.023a1.023,1.023,0,1,0,0-2.046Z" transform="translate(-96.252 -231.968)"/>
        </g>
      </g>
    </g>
  </g>
</svg>
