<svg xmlns="http://www.w3.org/2000/svg" width="150" height="150" viewBox="0 0 150 150">
  <g id="fish" transform="translate(-1263 1914)">
    <g id="Group_165" data-name="Group 165" transform="translate(499 17)">
      <path id="Path_99" data-name="Path 99" d="M0,0H150V150H0Z" transform="translate(764 -1931)" fill="none"/>
    </g>
    <g id="Group_169" data-name="Group 169">
      <g id="animal" transform="translate(1300.54 -1891.997)">
        <path id="Path_142" data-name="Path 142" d="M83.714,55.3a8.206,8.206,0,0,0-6.578-7.435,64.416,64.416,0,0,0-9-1.133,6.192,6.192,0,0,0-10.849.777c-.141.032-.285.058-.426.092a33.455,33.455,0,0,1-17.723-.2.479.479,0,0,0-.539.729c1.2,1.747,1.913,4.277-6.948,1.541a.48.48,0,0,0-.517.762c2.731,3.323,11.889,12.2,30.974,10.887a10.444,10.444,0,0,1-9.146,3.505.553.553,0,0,0-.392.985c2.812,2.252,10.155,6.529,23.589,4.323a8.319,8.319,0,0,0,6.5-5.447A22.641,22.641,0,0,0,83.714,55.3Z" transform="translate(-10.335 -29.136)" fill="#f89422"/>
        <path id="Path_143" data-name="Path 143" d="M31.019,55.949s3.24,7.087,20.742,8.25a1.619,1.619,0,1,0,.151-3.234C39.752,60.547,34.471,59.609,31.019,55.949Z" transform="translate(-10.33 -37.148)" fill="#f9bd55"/>
        <g id="Group_168" data-name="Group 168" transform="translate(69.993 30.46)">
          <path id="Path_144" data-name="Path 144" d="M195.588,100.028c.517-2.424-1-4.809-2.693-6.615a25.719,25.719,0,0,0-3.074-2.773,11.21,11.21,0,0,1-.183,6.347,12.428,12.428,0,0,1-7.565,7.575,13.41,13.41,0,0,1-4.347.763,3.669,3.669,0,0,0,1.858,2.357,4.543,4.543,0,0,0,1.622.312,16.7,16.7,0,0,0,12.038-4.359A7.174,7.174,0,0,0,195.588,100.028Z" transform="translate(-177.726 -90.641)" fill="#f76e23"/>
          <path id="Path_145" data-name="Path 145" d="M203.462,115.508a4.709,4.709,0,0,1-.1,1.03,7.172,7.172,0,0,1-2.343,3.607,16.711,16.711,0,0,1-11.583,4.371,6.071,6.071,0,0,0,1.528,3.975,6.514,6.514,0,0,0,4.047,1.45,9.871,9.871,0,0,0,5.085-.655,10.2,10.2,0,0,0,3.22-2.684,11.562,11.562,0,0,0,1.846-2.72A7.587,7.587,0,0,0,203.462,115.508Z" transform="translate(-185.501 -107.151)" fill="#f76e23"/>
          <path id="Path_146" data-name="Path 146" d="M208.566,148.444a7.694,7.694,0,0,0-.168-4.139,15.683,15.683,0,0,1-1.1,1.416,10.2,10.2,0,0,1-3.22,2.684,9.867,9.867,0,0,1-5.085.655,7.816,7.816,0,0,1-3.284-.882,7.582,7.582,0,0,0-.268,1.6,3.876,3.876,0,0,0,1.039,3,5.77,5.77,0,0,0,2.481,1.162,8.364,8.364,0,0,0,4.49.424,5.842,5.842,0,0,0,2.113-1.187A8.909,8.909,0,0,0,208.566,148.444Z" transform="translate(-189.485 -126.27)" fill="#f76e23"/>
          <path id="Path_147" data-name="Path 147" d="M206.014,169.925a5.84,5.84,0,0,1-2.113,1.187,8.365,8.365,0,0,1-4.49-.424,6.314,6.314,0,0,1-2.306-1.014l-.4,1.351c-.543,1.85-1.043,4,.072,5.577a3.8,3.8,0,0,0,2.869,1.5,5.687,5.687,0,0,0,3.186-.853,7.842,7.842,0,0,0,3.617-7.717C206.31,169.666,206.165,169.8,206.014,169.925Z" transform="translate(-189.933 -143.018)" fill="#f76e23"/>
          <path id="Path_148" data-name="Path 148" d="M192.22,189.689a3.8,3.8,0,0,1-2.869-1.5,3.485,3.485,0,0,1-.539-1.205q-1.022,1.445-2.158,2.8a9.26,9.26,0,0,0-1.422,2,2.734,2.734,0,0,0-.067,2.375,2.682,2.682,0,0,0,2.906,1.143,6.946,6.946,0,0,0,2.895-1.618,14.15,14.15,0,0,0,2.667-2.7,7.2,7.2,0,0,0,.908-1.724A5.29,5.29,0,0,1,192.22,189.689Z" transform="translate(-182.504 -154.606)" fill="#f76e23"/>
        </g>
        <path id="Path_149" data-name="Path 149" d="M165.167,211.239a27.774,27.774,0,0,1-5.67,7.69,9.018,9.018,0,0,1-2.792,1.964,7.281,7.281,0,0,1-3.6.343,6.956,6.956,0,0,0,.9,2.913,2.2,2.2,0,0,0,1.959,1.268,6.5,6.5,0,0,0,5.08-2.081,16.177,16.177,0,0,0,3.012-4.775,22.313,22.313,0,0,0,2.191-7.1A3.03,3.03,0,0,1,165.167,211.239Z" transform="translate(-91.389 -140.249)" fill="#f89422"/>
        <path id="Path_150" data-name="Path 150" d="M153.359,206.064a2.249,2.249,0,0,1-.238-1.153,30.288,30.288,0,0,1-10.374,4.494,12.5,12.5,0,0,0-3.926,1.245,3.352,3.352,0,0,0-1.729,3.457c.39,1.512,2.087,2.242,3.605,2.61a8.87,8.87,0,0,0,5.325-.024,9.012,9.012,0,0,0,2.792-1.964,27.774,27.774,0,0,0,5.67-7.69A2.174,2.174,0,0,1,153.359,206.064Z" transform="translate(-80.705 -136.048)" fill="#f9bd55"/>
        <path id="Path_151" data-name="Path 151" d="M171.591,70.049A11.51,11.51,0,0,0,170,68.52a13.44,13.44,0,0,0-6.475-2.749,8.249,8.249,0,0,1,1.448,4.062,22.637,22.637,0,0,1-1.048,9.388,8.318,8.318,0,0,1-6.5,5.447c-1.4.23-2.734.386-4,.485a10.612,10.612,0,0,0,7.69,3.662,13.5,13.5,0,0,0,4.827-.765,12.429,12.429,0,0,0,7.565-7.574,11.008,11.008,0,0,0-1.911-10.426Z" transform="translate(-91.595 -43.669)" fill="#f76e23"/>
        <path id="Path_152" data-name="Path 152" d="M117.54,57.25a.84.84,0,0,1-.84-.837,3.108,3.108,0,0,1,3.1-3.118h.01a3.108,3.108,0,0,1,3.108,3.1.84.84,0,0,1-.837.843h0a.84.84,0,0,1-.84-.837,1.43,1.43,0,0,0-1.428-1.423h0a1.43,1.43,0,0,0-1.423,1.433.84.84,0,0,1-.837.843Z" transform="translate(-67.216 -35.385)"/>
        <path id="Path_153" data-name="Path 153" d="M67.32,69.93A32.861,32.861,0,0,1,58.5,68.795a22.579,22.579,0,0,1-8.111-3.986,1.393,1.393,0,0,1,.994-2.477,10.032,10.032,0,0,0,6.277-1.382c.181-.111.352-.223.51-.334-17.622.492-26.344-7.657-29.342-11.306a1.32,1.32,0,0,1,1.414-2.1c5.8,1.791,6.561,1,6.569.989.022-.07-.021-.469-.559-1.25a1.319,1.319,0,0,1,1.482-2.008,32.5,32.5,0,0,0,17.274.183l.05-.012a7.031,7.031,0,0,1,11.879-.857,65,65,0,0,1,8.7,1.125,9.072,9.072,0,0,1,7.254,8.194A23.6,23.6,0,0,1,81.8,63.309a9.18,9.18,0,0,1-7.158,6A45.271,45.271,0,0,1,67.32,69.93ZM52.181,64.058c7.382,5.3,17.9,4.292,22.187,3.589a7.5,7.5,0,0,0,5.846-4.9,21.938,21.938,0,0,0,1-9.042,7.387,7.387,0,0,0-5.9-6.675,62.932,62.932,0,0,0-8.876-1.118.841.841,0,0,1-.663-.384A5.352,5.352,0,0,0,56.4,46.2a.839.839,0,0,1-.58.47l-.191.041c-.074.015-.148.031-.221.048a34.789,34.789,0,0,1-17.284.047,2.2,2.2,0,0,1,.046,2.389c-.854,1.163-3.041,1.165-7.231-.026C34.541,53.082,43.411,60,60.395,58.824a.84.84,0,0,1,.73,1.342A11.155,11.155,0,0,1,52.181,64.058Z" transform="translate(-8.676 -27.476)"/>
        <path id="Path_154" data-name="Path 154" d="M20.689,19.641a.837.837,0,0,1-.611-.263,19.315,19.315,0,0,1-1.673-2.064C15.139,12.73,14.551,7.772,16.834,4.05A8.385,8.385,0,0,1,25.355.1a4.992,4.992,0,0,1,4.429,3.524A6.141,6.141,0,0,1,28.019,9.7a4,4,0,0,1-4.407.693,3.581,3.581,0,0,1-1.97-4.312.84.84,0,1,1,1.582.567,1.9,1.9,0,0,0,1.066,2.207,2.333,2.333,0,0,0,2.62-.419A4.448,4.448,0,0,0,28.172,4.1a3.408,3.408,0,0,0-3.066-2.336,6.732,6.732,0,0,0-6.839,3.169c-1.919,3.128-1.355,7.394,1.508,11.41A17.674,17.674,0,0,0,21.3,18.224a.841.841,0,0,1-.611,1.417Z" transform="translate(0 0)"/>
        <path id="Path_155" data-name="Path 155" d="M50.212,63.383c-.055,0-.11,0-.165-.006-17.8-1.182-21.31-8.431-21.451-8.739a.84.84,0,0,1,1.376-.926c3.065,3.251,7.621,4.317,20.311,4.753a2.46,2.46,0,0,1,1.572,4.279,2.425,2.425,0,0,1-1.642.638Zm-13.28-4.427A41.662,41.662,0,0,0,50.157,61.7a.777.777,0,0,0,.822-.755.782.782,0,0,0-.755-.8,82.981,82.981,0,0,1-13.292-1.189Z" transform="translate(-8.67 -35.488)"/>
        <path id="Path_156" data-name="Path 156" d="M180.372,107.2q-.434,0-.868-.022a5.3,5.3,0,0,1-1.92-.383,4.42,4.42,0,0,1-2.316-2.864.84.84,0,0,1,.788-1.1,12.538,12.538,0,0,0,4.075-.714,11.639,11.639,0,0,0,7.05-7.049,10.4,10.4,0,0,0,.167-5.867.84.84,0,0,1,1.324-.88,26.72,26.72,0,0,1,3.174,2.864c2.386,2.537,3.389,5.084,2.9,7.365a7.861,7.861,0,0,1-2.6,4.048A17.446,17.446,0,0,1,180.372,107.2Zm-3.026-2.759a2.18,2.18,0,0,0,.92.819,3.824,3.824,0,0,0,1.323.241,15.953,15.953,0,0,0,11.425-4.137,6.288,6.288,0,0,0,2.092-3.165c.463-2.171-1.095-4.387-2.484-5.864q-.606-.645-1.278-1.26a11.95,11.95,0,0,1-.569,4.524,13.178,13.178,0,0,1-8.079,8.1,13.937,13.937,0,0,1-3.35.743Z" transform="translate(-106.073 -58.521)"/>
        <path id="Path_157" data-name="Path 157" d="M194.763,129.185c-.468,0-.961-.022-1.482-.067a7.3,7.3,0,0,1-4.558-1.682,6.875,6.875,0,0,1-1.782-4.505.841.841,0,0,1,.223-.649.8.8,0,0,1,.632-.266,15.877,15.877,0,0,0,10.995-4.148,6.288,6.288,0,0,0,2.092-3.165,3.824,3.824,0,0,0,.08-.847.84.84,0,0,1,1.42-.616,8.446,8.446,0,0,1,1.885,9.329,12.475,12.475,0,0,1-1.975,2.921,11.116,11.116,0,0,1-3.494,2.894A9.211,9.211,0,0,1,194.763,129.185Zm-6.033-5.5a4.365,4.365,0,0,0,1.158,2.536,5.812,5.812,0,0,0,3.536,1.218,8.9,8.9,0,0,0,4.653-.577,9.592,9.592,0,0,0,2.944-2.473,10.935,10.935,0,0,0,1.717-2.518,6.678,6.678,0,0,0-.434-6.057,8.649,8.649,0,0,1-2.373,3.284A17.519,17.519,0,0,1,188.73,123.689Z" transform="translate(-113.848 -75.031)"/>
        <path id="Path_158" data-name="Path 158" d="M200.493,153.713a12.6,12.6,0,0,1-3.42-.625,6.525,6.525,0,0,1-2.83-1.361,4.684,4.684,0,0,1-1.3-3.652,8.4,8.4,0,0,1,.3-1.773.84.84,0,0,1,1.238-.507,6.888,6.888,0,0,0,2.93.769,8.9,8.9,0,0,0,4.653-.577A9.592,9.592,0,0,0,205,143.512a14.784,14.784,0,0,0,1.04-1.34.84.84,0,0,1,1.493.21,8.59,8.59,0,0,1,.188,4.594,9.741,9.741,0,0,1-3.282,5.186,6.6,6.6,0,0,1-2.423,1.35,5.652,5.652,0,0,1-1.527.2Zm-5.831-5.992q-.029.223-.039.433a3.024,3.024,0,0,0,.778,2.354,5.171,5.171,0,0,0,2.132.963,7.548,7.548,0,0,0,4.033.423,4.963,4.963,0,0,0,1.8-1.024,8.055,8.055,0,0,0,2.721-4.28,6.914,6.914,0,0,0,.171-1.963,11.079,11.079,0,0,1-3.479,2.876,12.6,12.6,0,0,1-8.12.218Zm12.245-.938h0Z" transform="translate(-117.832 -94.15)"/>
        <path id="Path_159" data-name="Path 159" d="M198.267,177.291c-.108,0-.216,0-.323-.01a4.63,4.63,0,0,1-3.5-1.852c-1.444-2.038-.63-4.81-.193-6.3l.4-1.351a.84.84,0,0,1,1.337-.414,5.541,5.541,0,0,0,2,.857,7.548,7.548,0,0,0,4.033.423,4.964,4.964,0,0,0,1.8-1.024c.138-.115.27-.236.4-.359a.84.84,0,0,1,1.407.49,8.676,8.676,0,0,1-4.022,8.562A6.616,6.616,0,0,1,198.267,177.291Zm-2.317-8-.091.308c-.494,1.684-.947,3.587-.049,4.854a2.982,2.982,0,0,0,2.234,1.146,4.922,4.922,0,0,0,2.709-.738,6.918,6.918,0,0,0,3.255-5.3,5.8,5.8,0,0,1-1.536.7,9.115,9.115,0,0,1-4.947-.425A10.914,10.914,0,0,1,195.95,169.3Z" transform="translate(-118.285 -110.9)"/>
        <path id="Path_160" data-name="Path 160" d="M185.762,194.55a3.334,3.334,0,0,1-3-1.657,3.523,3.523,0,0,1,.047-3.117,9.065,9.065,0,0,1,1.409-2.031l.133-.158c.733-.874,1.445-1.8,2.116-2.749a.84.84,0,0,1,1.5.286,2.629,2.629,0,0,0,.409.919,2.981,2.981,0,0,0,2.234,1.146h0a4.453,4.453,0,0,0,1.951-.363.84.84,0,0,1,1.112,1.059,8.014,8.014,0,0,1-1.014,1.926,15.044,15.044,0,0,1-2.822,2.864,7.7,7.7,0,0,1-3.259,1.791A4.068,4.068,0,0,1,185.762,194.55Zm1.215-7.57q-.655.866-1.343,1.687l-.135.161a7.7,7.7,0,0,0-1.168,1.65,1.9,1.9,0,0,0-.086,1.633,1.871,1.871,0,0,0,2,.71,6.287,6.287,0,0,0,2.53-1.445,13.569,13.569,0,0,0,2.5-2.517,5.409,5.409,0,0,1-.766.008,4.63,4.63,0,0,1-3.5-1.852Z" transform="translate(-110.847 -122.486)"/>
        <path id="Path_161" data-name="Path 161" d="M154.8,224.622a5.731,5.731,0,0,1-.578-.029,3.019,3.019,0,0,1-2.6-1.684,7.82,7.82,0,0,1-1.011-3.266.841.841,0,0,1,.939-.9,6.417,6.417,0,0,0,3.184-.289,8.342,8.342,0,0,0,2.524-1.792,26.792,26.792,0,0,0,5.5-7.457.839.839,0,0,1,1.073-.4,2.2,2.2,0,0,0,.783.16.84.84,0,0,1,.817.918,23.428,23.428,0,0,1-2.264,7.373,16.935,16.935,0,0,1-3.18,5.016A7.444,7.444,0,0,1,154.8,224.622Zm-2.357-4.131a6.009,6.009,0,0,0,.631,1.577,1.393,1.393,0,0,0,1.316.853,5.655,5.655,0,0,0,4.4-1.838,15.181,15.181,0,0,0,2.844-4.533,26.032,26.032,0,0,0,1.85-5.154,28.372,28.372,0,0,1-5.07,6.481,9.85,9.85,0,0,1-3.061,2.137A7.28,7.28,0,0,1,152.446,220.491Z" transform="translate(-89.729 -138.589)"/>
        <path id="Path_162" data-name="Path 162" d="M141.95,216.3a13.353,13.353,0,0,1-3.114-.423c-2.4-.581-3.82-1.663-4.221-3.216a4.189,4.189,0,0,1,2.1-4.382,11.075,11.075,0,0,1,3.615-1.226c.19-.041.38-.081.569-.123a29.647,29.647,0,0,0,10.085-4.369.84.84,0,0,1,1.311.731,1.41,1.41,0,0,0,.143.726,1.371,1.371,0,0,0,.7.589.84.84,0,0,1,.431,1.152,28.463,28.463,0,0,1-5.841,7.923,9.851,9.851,0,0,1-3.061,2.137A7.337,7.337,0,0,1,141.95,216.3Zm8.923-11.664a30.843,30.843,0,0,1-9.607,3.933c-.194.043-.388.085-.584.126a9.688,9.688,0,0,0-3.085,1.014,2.545,2.545,0,0,0-1.356,2.531c.291,1.128,1.786,1.712,2.989,2a7.919,7.919,0,0,0,4.817.011,8.341,8.341,0,0,0,2.524-1.792,26.742,26.742,0,0,0,5.138-6.762,2.806,2.806,0,0,1-.757-.9C150.924,204.743,150.9,204.688,150.873,204.633Z" transform="translate(-79.041 -134.389)"/>
        <path id="Path_163" data-name="Path 163" d="M159.754,88c-.107,0-.215,0-.323,0a11.47,11.47,0,0,1-8.3-3.946.84.84,0,0,1,.565-1.393c1.3-.1,2.624-.261,3.933-.476a7.5,7.5,0,0,0,5.846-4.9,21.938,21.938,0,0,0,1-9.042,7.433,7.433,0,0,0-1.3-3.649.84.84,0,0,1,.812-1.309,14.312,14.312,0,0,1,6.879,2.924,12.391,12.391,0,0,1,1.7,1.641,11.859,11.859,0,0,1,2.068,11.237,13.177,13.177,0,0,1-8.079,8.1A14.232,14.232,0,0,1,159.754,88Zm-6.095-3.846a9.629,9.629,0,0,0,5.807,2.163,12.642,12.642,0,0,0,4.526-.717,11.639,11.639,0,0,0,7.05-7.049,10.145,10.145,0,0,0-1.754-9.616h0a10.691,10.691,0,0,0-1.474-1.417,12.3,12.3,0,0,0-4.341-2.2,9.074,9.074,0,0,1,.677,2.8,23.6,23.6,0,0,1-1.093,9.734,9.181,9.181,0,0,1-7.158,6C155.155,83.961,154.407,84.066,153.659,84.154Z" transform="translate(-89.935 -42.01)"/>
        <path id="Path_164" data-name="Path 164" d="M69.637,132.209a.85.85,0,0,1-.193-.023.84.84,0,0,1-.625-1.011l1.738-7.38a.845.845,0,0,1,.166-.337l5.43-6.679a.84.84,0,0,1,.393-.269L82,114.74a.84.84,0,1,1,.519,1.6L77.3,118.031l-5.152,6.337-1.694,7.192A.841.841,0,0,1,69.637,132.209Z" transform="translate(-35.411 -76.154)"/>
        <path id="Path_165" data-name="Path 165" d="M100.861,140.094a.84.84,0,0,1-.833-.743l-.833-7.167a.835.835,0,0,1,.041-.374l2.7-7.735a.839.839,0,0,1,.277-.386l5.081-3.952a.84.84,0,0,1,1.032,1.326l-4.885,3.8-2.551,7.319.811,6.976a.84.84,0,0,1-.737.932.82.82,0,0,1-.1.006Z" transform="translate(-55.589 -79.381)"/>
        <path id="Path_166" data-name="Path 166" d="M129.924,140.961a.841.841,0,0,1-.8-.585l-1.933-6.051a.846.846,0,0,1-.031-.374l1.021-7.139a.836.836,0,0,1,.2-.433l4.145-4.761a.84.84,0,1,1,1.267,1.1l-3.982,4.574-.959,6.7,1.875,5.867a.841.841,0,0,1-.8,1.1Z" transform="translate(-74.155 -80.556)"/>
        <path id="Path_167" data-name="Path 167" d="M158.735,137.95a.84.84,0,0,1-.84-.84V133.89a.841.841,0,0,1,.2-.547l2.364-2.758a.84.84,0,1,1,1.276,1.094l-2.162,2.523v2.908A.84.84,0,0,1,158.735,137.95Z" transform="translate(-94.566 -86.506)"/>
        <path id="Path_168" data-name="Path 168" d="M168.282,144.3a.841.841,0,0,1-.806-1.079l.917-3.086a.841.841,0,0,1,.349-.466l2.914-1.883a.84.84,0,0,1,.912,1.412l-2.654,1.714-.828,2.788A.84.84,0,0,1,168.282,144.3Z" transform="translate(-100.904 -91.393)"/>
        <path id="Path_169" data-name="Path 169" d="M175.919,154.451a.84.84,0,0,1-.747-1.224l1.47-2.864a.845.845,0,0,1,.43-.394l3.27-1.337a.84.84,0,0,1,.636,1.556l-2.983,1.219-1.327,2.588A.84.84,0,0,1,175.919,154.451Z" transform="translate(-105.975 -98.641)"/>
        <path id="Path_170" data-name="Path 170" d="M178.948,168.768a.84.84,0,0,1-.547-1.478l2.445-2.094a.84.84,0,0,1,.546-.2h0l3.054,0a.84.84,0,0,1,0,1.68H181.7l-2.209,1.892A.839.839,0,0,1,178.948,168.768Z" transform="translate(-107.986 -109.546)"/>
        <path id="Path_171" data-name="Path 171" d="M183.891,181.871a.835.835,0,0,1-.346-.075l-1.969-.892-2.793.812a.84.84,0,1,1-.469-1.613l3.091-.9a.842.842,0,0,1,.581.041l2.252,1.021a.841.841,0,0,1-.347,1.606Z" transform="translate(-107.721 -118.958)"/>
      </g>
      <g id="food" transform="matrix(0.719, 0.695, -0.695, 0.719, 1329.463, -1887.053)">
        <path id="Path_131" data-name="Path 131" d="M64.63,5.422h3.137a1,1,0,0,1,1.141,1.141c0,5.5-1.654,11.407-5.715,15.228a22.868,22.868,0,0,1-2.27,8.726H59.782s-5.7,4.563-5.7,9.125a10.306,10.306,0,0,0,.251,2.224l-.251.057a19.179,19.179,0,0,1-10.266,9.524,59.3,59.3,0,0,1-10.3,2.874c-3.707.833-7.266,1.722-10.232,3.57A4.926,4.926,0,0,0,22,59.033c-6.741-.091-8.988-6.867-8.988-10.266l-.125-.274a4.237,4.237,0,0,0,1.266-.867,14.532,14.532,0,0,0,2.931-4.574c.913-2.065,1.654-4.46,2.521-7.061a72.858,72.858,0,0,1,2.886-7.585h.011a42.432,42.432,0,0,1,5.007-8.441,43.606,43.606,0,0,1,3.753-4.277,37.819,37.819,0,0,1,2.954-2.669,43.327,43.327,0,0,1,5.35-3.764A53.827,53.827,0,0,1,65.486,2c1.141,0,.285,1.711-.855,3.422Z" transform="translate(1.672 0.141)" fill="#e6e9ed"/>
        <g id="Group_167" data-name="Group 167" transform="translate(2.141 6.703)">
          <path id="Path_132" data-name="Path 132" d="M14.547,43.034c0,3.4,2.247,10.175,8.988,10.266-1.38,1.665-1.859,4.084-2.4,6.262-.673,2.76-1.46,5.144-4.312,5.144a13.618,13.618,0,0,1-10.95-5.019A18.981,18.981,0,0,1,2,47.6c1.015-5.1,8.418-2.909,12.422-4.836Z" transform="translate(-2 -0.83)" fill="#838f9b"/>
          <path id="Path_133" data-name="Path 133" d="M53.563,43.768c-.673.913-1.141,1.483-1.141,1.483a19.939,19.939,0,0,1-3.16-6.9h-.011A10.307,10.307,0,0,1,49,36.125C49,31.563,54.7,27,54.7,27a8.555,8.555,0,0,1,3.422,6.844C58.125,37.095,55.228,41.509,53.563,43.768Z" transform="translate(4.611 -3.046)" fill="#838f9b"/>
          <path id="Path_134" data-name="Path 134" d="M31.388,48.224a59.3,59.3,0,0,0,10.3-2.874c0,11.03-.16,12.205-13.688,16.711V55.217q0-3.422,3.422-6.844Z" transform="translate(1.657 -0.465)" fill="#838f9b"/>
          <path id="Path_135" data-name="Path 135" d="M40.06,8.6A9.5,9.5,0,0,0,32.954,6c-2.692,0-5.441,1.768-8.076,4.483a47.91,47.91,0,0,0-5.4,6.924c-1.7,2.589-3.274,5.35-4.665,7.985-1.528,2.92-2.84,5.68-3.81,7.859C9.73,36.079,9,37.938,9,37.938s2.167,4.346,8.635,4.551c.913-2.065,1.654-4.46,2.521-7.061a72.859,72.859,0,0,1,2.886-7.585h.011A42.432,42.432,0,0,1,28.06,19.4a43.606,43.606,0,0,1,3.753-4.277,37.82,37.82,0,0,1,2.954-2.669,43.327,43.327,0,0,1,5.35-3.764Z" transform="translate(-1.015 -6)" fill="#838f9b"/>
        </g>
        <path id="Path_136" data-name="Path 136" d="M37.46,21.574,36.547,20C34.266,22.281,29.7,26.844,24,33.688l6.775.673,4.631.468,4.563-11.407C39.867,23.422,39.764,23.411,37.46,21.574Z" transform="translate(3.235 2.672)" fill="#ccd1d9"/>
        <path id="Path_137" data-name="Path 137" d="M38.422,23.934c-.1,0-.205-.011-2.509-1.848L35,20.512l3.114-4.152a15.3,15.3,0,0,0,3.616,5.372Z" transform="translate(4.782 2.16)" fill="#969faa"/>
        <ellipse id="Ellipse_15" data-name="Ellipse 15" cx="1.5" cy="2" rx="1.5" ry="2" transform="translate(52 9)" fill="#656d78"/>
        <path id="Path_138" data-name="Path 138" d="M47.422,13.844A3.422,3.422,0,1,0,44,10.422,3.426,3.426,0,0,0,47.422,13.844Zm0-4.563a1.141,1.141,0,1,1-1.141,1.141A1.142,1.142,0,0,1,47.422,9.281Z" transform="translate(6.048 0.844)"/>
        <path id="Path_139" data-name="Path 139" d="M40.247,13H37.966a11.393,11.393,0,0,0,.7,3.633l-2.7,3.6c-2.253,2.253-6.867,6.875-12.56,13.707l-1.376,1.652,14.4,1.44,4.75-11.874,2.262-1.508a7.734,7.734,0,0,0,4.8,1.9V23.266c-3.778,0-7.985-6.12-7.985-10.266Zm-.533,6.034a16.493,16.493,0,0,0,2.047,2.992l-1.769,1.179a5.313,5.313,0,0,1-1.831-2.1Zm-3.82,4.506L30.128,34.111l-3.584-.358C30.4,29.224,33.665,25.806,35.894,23.54Zm-.95,11.053-2.351-.235,5.36-9.827a4.766,4.766,0,0,0,.786.575Z" transform="translate(2.957 1.688)"/>
        <path id="Path_140" data-name="Path 140" d="M47.837,20.748V18.466c-2.23,0-3.784-1.273-4.622-3.782l-2.163.722C42.6,20.054,45.967,20.748,47.837,20.748Z" transform="translate(5.634 1.925)"/>
        <path id="Path_141" data-name="Path 141" d="M65.991,22.458c4.08-4.1,5.73-10.2,5.73-15.755a2.138,2.138,0,0,0-2.281-2.281H68.293c.785-1.643.513-2.248.387-2.521A1.6,1.6,0,0,0,67.158,1a55.973,55.973,0,0,0-25.77,6.994,10.522,10.522,0,0,0-7.309-2.432c-12.046,0-24.492,31.328-25.016,32.662l-.186.473.227.454a10.515,10.515,0,0,0,7.907,5.022,11.731,11.731,0,0,1-1.989,2.787c-1.168,1.168-3.493,1.364-5.74,1.555-3.314.279-7.438.627-8.259,4.731L1,53.47c0,10.745,6.567,18.25,15.969,18.25,3.983,0,4.838-3.558,5.591-6.7.576-2.4,1.171-4.883,3-6.024a24.192,24.192,0,0,1,6.791-2.686,9.307,9.307,0,0,0-1.693,5.141v8.426l1.5-.5c13.549-4.516,14.424-6.048,14.466-17.063a20.178,20.178,0,0,0,8.97-7.689,22.2,22.2,0,0,0,2.667,4.963l.866,1.154.924-1.109c.242-.292,5.967-7.218,5.967-12.137a9.574,9.574,0,0,0-2.385-6.367,24.2,24.2,0,0,0,2.359-8.676ZM39.274,9.281c-1.184.764-2.355,1.6-3.5,2.509a20.828,20.828,0,0,0-7.053-1.556,8.845,8.845,0,0,1,5.362-2.391A8.266,8.266,0,0,1,39.274,9.281ZM26.425,12.41a27.759,27.759,0,0,1,7.4,1.022c-.571.511-1.137,1.036-1.692,1.59A44.178,44.178,0,0,0,28.927,18.6a17.662,17.662,0,0,0-6.221-1.523A44.182,44.182,0,0,1,26.425,12.41ZM20.653,34.426a20.034,20.034,0,0,0-6.846-1.442c.833-1.8,1.778-3.738,2.813-5.72,1.711.1,4.638.519,6.112,1.708C21.916,30.856,21.247,32.685,20.653,34.426Zm3.058-7.58A13.852,13.852,0,0,0,17.8,25.066c1.08-1.968,2.235-3.932,3.438-5.8a19.6,19.6,0,0,1,6.287,1.177,43.987,43.987,0,0,0-3.811,6.4ZM11.4,38.532c.389-.97.861-2.09,1.4-3.308,2.132.044,5.371.445,7.133,1.382l-.114.347c-.594,1.809-1.158,3.5-1.783,5.031A8.835,8.835,0,0,1,11.4,38.532Zm5.573,30.907c-9.408,0-13.646-7.94-13.688-15.851.506-2.211,2.694-2.506,6.193-2.8a23.772,23.772,0,0,0,4.165-.6,13.831,13.831,0,0,0,.486,2.272L7.483,54.669l.722,2.164,6.758-2.253q.252.512.555,1.008l-7.34,7.34,1.613,1.613,7.122-7.122a9.379,9.379,0,0,0,.934.868L14.81,64.365l2.041,1.021,2.95-5.9a9.159,9.159,0,0,0,1.954.609,21.457,21.457,0,0,0-1.41,4.395c-.828,3.441-1.4,4.949-3.375,4.949Zm15.969-2.726V61.455c0-1.946,1.029-3.964,3.054-6l.244-.055-1,7.034,2.258.323,1.128-7.894c.712-.164,1.427-.336,2.144-.525L39.8,60.125l2.251.375,1.141-6.844-.048-.008c.4-.128.8-.266,1.2-.408-.048,8.9-.765,9.88-11.4,13.473ZM54.731,41.554C50.559,49.9,43.142,51.537,35.968,53.122c-4.224.934-8.213,1.816-11.62,3.944A6.341,6.341,0,0,0,23.215,58c-5.368-.384-7.255-5.815-7.375-8.776a5.391,5.391,0,0,0,.794-.644c2.624-2.622,3.884-6.462,5.344-10.907,2.019-6.146,4.531-13.8,11.766-21.031C45.65,4.73,62.1,3.43,66.325,3.3A30.612,30.612,0,0,1,62.86,8.255l1.753,1.46c.978-1.174,1.729-2.164,2.316-3.011h2.511c0,13.456-8.249,18.25-15.969,18.25v2.281a17.931,17.931,0,0,0,9.964-2.7,23.662,23.662,0,0,1-1.581,5.021l-.46-.307-.651.521c-.25.2-6.131,4.963-6.131,10.016a11.339,11.339,0,0,0,.147,1.784Zm6.724,2.1V38.642H59.173v8.166a14.931,14.931,0,0,1-2.281-7.025c0-3.07,3.146-6.309,4.58-7.626A7.409,7.409,0,0,1,63.736,37.5C63.736,39.262,62.681,41.578,61.455,43.653Z" transform="translate(0 0)"/>
      </g>
    </g>
  </g>
</svg>
