<svg xmlns="http://www.w3.org/2000/svg" width="150" height="150" viewBox="0 0 150 150">
  <g id="fruits" transform="translate(-1017 1915)">
    <g id="Group_158" data-name="Group 158" transform="translate(253 16)">
      <path id="Path_99" data-name="Path 99" d="M0,0H150V150H0Z" transform="translate(764 -1931)" fill="none"/>
    </g>
    <g id="Group_163" data-name="Group 163" transform="translate(8 7)">
      <g id="fruit_1_" data-name="fruit (1)" transform="translate(1035 -1882)">
        <path id="Path_100" data-name="Path 100" d="M69.157,152.4c1.988-.012,4.754-.623,6.617-.325,16.172,2.6,20.858,12.123,20.858,23.809,0,13.422-9.1,24.307-27.419,24.353H69.1c-18.317-.046-27.419-10.93-27.419-24.353,0-11.686,4.686-21.213,20.858-23.809C64.4,151.78,67.169,152.392,69.157,152.4Z" transform="translate(-40.85 -131.674)" fill="#f29737"/>
        <g id="Group_159" data-name="Group 159" transform="translate(0.83 20.56)" opacity="0.5">
          <path id="Path_101" data-name="Path 101" d="M80.665,197.318H80.55c-18.317-.046-27.419-10.93-27.419-24.353,0-7.89,2.137-14.795,8.5-19.248-15.441,2.8-19.953,12.189-19.953,23.654,0,13.422,9.1,24.307,27.419,24.353h.115c7.473-.019,13.411-1.842,17.824-4.9a40.448,40.448,0,0,1-6.373.5Z" transform="translate(-41.68 -153.717)" fill="#efb637"/>
        </g>
        <g id="Group_160" data-name="Group 160" transform="translate(0.83 25.14)" opacity="0.5">
          <path id="Path_102" data-name="Path 102" d="M83.4,221.776l-.1.054c-16.215,8.52-29.348,3.15-35.621-8.716-4.633-8.764-5.557-17.731,2.257-26.264-6.175,4.458-8.257,11.286-8.257,19.074,0,13.422,9.1,24.307,27.419,24.353h.115c16.373-.042,25.381-8.741,27.11-20.173C93.774,214.487,89.541,218.512,83.4,221.776Z" transform="translate(-41.68 -186.849)" fill="#ce7a2e"/>
        </g>
        <path id="Path_103" data-name="Path 103" d="M240.009,11.18c9.159-1.525,21.238,6.986,21.238,6.986s-17.63-5.091-33.537,4.057A14.916,14.916,0,0,1,240.009,11.18Z" transform="translate(-201.165 -10.166)" fill="#76b035"/>
        <path id="Path_104" data-name="Path 104" d="M252.01,90.687c6.822,1.809,12.228,12.243,12.313,12.406-.148-.137-10.565-9.734-24.643-7.863C239.68,95.231,244.209,88.617,252.01,90.687Z" transform="translate(-211.48 -78.494)" fill="#76b035"/>
        <g id="Group_161" data-name="Group 161" transform="translate(26.545 0.831)">
          <path id="Path_105" data-name="Path 105" d="M245.77,12.918a17.153,17.153,0,0,1,6,.194c-3.717-1.483-7.987-2.56-11.763-1.931a14.916,14.916,0,0,0-12.3,11.043,39.484,39.484,0,0,1,8.332-3.576,14.791,14.791,0,0,1,9.728-5.73Z" transform="translate(-227.71 -10.998)" fill="#4e6b28"/>
          <path id="Path_106" data-name="Path 106" d="M256.089,92.814l.034.01a11.949,11.949,0,0,0-4.113-2.136c-7.8-2.071-12.33,4.544-12.33,4.544a27.9,27.9,0,0,1,6.237-.123A11.084,11.084,0,0,1,256.089,92.814Z" transform="translate(-238.025 -79.326)" fill="#4e6b28"/>
          <path id="Path_107" data-name="Path 107" d="M385.526,159.468a29.865,29.865,0,0,1,4.482,3.245c-.018-.035-.278-.536-.741-1.32a36.119,36.119,0,0,0-3.741-1.925Z" transform="translate(-363.711 -138.944)" fill="#4e6b28"/>
        </g>
        <path id="Path_108" data-name="Path 108" d="M42.8,67.014c4.986,4.793,12.282,7.338,21.106,7.364h.152c8.824-.025,16.119-2.571,21.106-7.364,4.66-4.48,7.123-10.641,7.123-17.818,0-6.661-1.483-11.836-4.535-15.819-3.524-4.6-9.25-7.563-17.021-8.81a17.3,17.3,0,0,0-4.268.122c-.553.059-1.086.116-1.585.152a13.159,13.159,0,0,0-.126-2.391A29.991,29.991,0,0,1,81.1,25.661a32.23,32.23,0,0,1,6.86,4.53.829.829,0,0,0,1.3-.986c-.229-.446-5.689-10.934-12.838-12.831a11.771,11.771,0,0,0-9.761,1.605A14.328,14.328,0,0,0,64.2,20.044a17.2,17.2,0,0,0-1.053-2.571,43.461,43.461,0,0,1,21.739-5.064A45.962,45.962,0,0,1,95.531,13.78a.829.829,0,0,0,.707-1.475,51.929,51.929,0,0,0-7.313-4.139c-5.681-2.642-10.573-3.647-14.54-2.987a15.661,15.661,0,0,0-10.591,6.514,16.5,16.5,0,0,0-1.908,3.628c-.305-.455-.639-.916-1.006-1.384-2.734-3.481-6.336-5.948-9.178-6.285a.829.829,0,1,0-.2,1.647c2.388.283,5.631,2.559,8.068,5.663a15.348,15.348,0,0,1,3.644,9.89c-.536-.036-1.115-.1-1.717-.161a17.29,17.29,0,0,0-4.268-.122c-7.771,1.247-13.5,4.211-17.021,8.81-3.052,3.983-4.535,9.157-4.535,15.819,0,7.176,2.464,13.337,7.124,17.817ZM76,17.977C79.9,19.014,83.39,23.17,85.54,26.3a37.389,37.389,0,0,0-3.651-2.1A32.412,32.412,0,0,0,67.5,20.651q-.788,0-1.6.045A10.483,10.483,0,0,1,76,17.977ZM74.658,6.815a13.138,13.138,0,0,1,2.157-.17c3.979,0,8.273,1.568,11.385,3.013,1.155.536,2.223,1.09,3.162,1.608a52.994,52.994,0,0,0-6.389-.515,45.644,45.644,0,0,0-21.293,4.562A14.057,14.057,0,0,1,74.658,6.815ZM41.531,34.387c3.3-4.311,8.526-6.987,15.967-8.181a6.737,6.737,0,0,1,1.054-.072,27.458,27.458,0,0,1,2.774.206c.908.1,1.769.189,2.555.2h.2c.787-.011,1.647-.1,2.555-.2a16.274,16.274,0,0,1,3.828-.134c7.441,1.194,12.664,3.871,15.967,8.181,2.822,3.682,4.193,8.527,4.193,14.81,0,6.714-2.287,12.462-6.614,16.622-4.686,4.5-11.612,6.89-20.032,6.9-8.421-.011-15.346-2.4-20.032-6.9-4.327-4.16-6.614-9.907-6.614-16.622,0-6.283,1.371-11.128,4.193-14.81Z" transform="translate(-35.678 -4.983)" fill="#151515"/>
        <path id="Path_109" data-name="Path 109" d="M71.5,307.374c-.247-.722-.462-1.472-.639-2.23a26.361,26.361,0,0,1-.672-6c0-1.114.044-2.2.132-3.221a.829.829,0,1,0-1.653-.141c-.091,1.07-.138,2.2-.138,3.362a28.018,28.018,0,0,0,.716,6.379c.19.811.42,1.614.685,2.388a.829.829,0,0,0,1.57-.536Z" transform="translate(-63.985 -254.929)" fill="#151515"/>
        <path id="Path_110" data-name="Path 110" d="M90.885,408.123a.829.829,0,0,0,.677-1.307,20.873,20.873,0,0,1-1.372-2.236.829.829,0,1,0-1.465.777,22.574,22.574,0,0,0,1.482,2.414A.829.829,0,0,0,90.885,408.123Z" transform="translate(-81.308 -348.962)" fill="#151515"/>
      </g>
      <g id="fruit" transform="translate(1074.142 -1882)">
        <path id="Path_111" data-name="Path 111" d="M250,23.894c-1.964,3.761-3.879,7.455-3.879,9.794a3.815,3.815,0,0,1-4.164.271,5.622,5.622,0,0,1,.055-.755l.152-.8c1.25-5.316,7.751-14.5,7.838-19.31A2.106,2.106,0,0,1,252.1,11a2.029,2.029,0,0,1,1.458.612,2.255,2.255,0,0,1,.633,1.479c.118,2.593-2.062,6.736-4.186,10.8C250,23.893,250,23.893,250,23.894Z" transform="translate(-214.456 -10.171)" fill="#e29454"/>
        <path id="Path_112" data-name="Path 112" d="M243.686,33.959a5.632,5.632,0,0,1,.055-.755l.152-.8c1.25-5.316,7.751-14.5,7.838-19.31a2.128,2.128,0,0,1,1.227-1.9A2.024,2.024,0,0,0,252.1,11a2.106,2.106,0,0,0-2.093,2.091c-.087,4.8-6.588,13.993-7.838,19.31l-.152.8a5.632,5.632,0,0,0-.055.755,3.673,3.673,0,0,0,2.7.4,2.951,2.951,0,0,1-.976-.4Z" transform="translate(-214.456 -10.171)" fill="#bf7a47"/>
        <path id="Path_113" data-name="Path 113" d="M290.743,72.651a.658.658,0,0,1,.04.557l-.7,1.823a11.634,11.634,0,0,1-2.924,4.342,15.074,15.074,0,0,0-1.732-.587c-6.814-1.868-10.587,4.273-13.11,6.822a2.679,2.679,0,0,1-.238.213c0-2.339,1.914-6.033,3.879-9.794,0,0,0,0,0,0,2.763-4.154,7.691-5.2,12.373-4.15l1.953.437A.7.7,0,0,1,290.743,72.651Z" transform="translate(-240.412 -62.302)" fill="#789e19"/>
        <path id="Path_114" data-name="Path 114" d="M290.287,76.993l-.292-.065c-.589.729-1.206,1.471-1.827,2.217,0,0,0,0,0,0-3.4,3.3-8.1,3.446-12.3,1.731-1.933,3.7-3.79,7.321-3.79,9.625a2.667,2.667,0,0,0,.238-.213c2.523-2.549,6.3-8.689,13.11-6.822a15.077,15.077,0,0,1,1.732.587,11.634,11.634,0,0,0,2.924-4.342l.7-1.823a.658.658,0,0,0-.04-.557.7.7,0,0,0-.456-.34Z" transform="translate(-240.412 -66.985)" fill="#6e891a"/>
        <path id="Path_115" data-name="Path 115" d="M150.966,44.47a5.627,5.627,0,0,0-.055.755,1.979,1.979,0,0,1-.52-.484c-1.9-2.6-5.759-7.946-11.833-7.089a18.81,18.81,0,0,1-2.169-10.3l.294-2.516a.868.868,0,0,1,1.088-.737l2.447.657a15.425,15.425,0,0,1,11.316,16.693l-.416,2.215q-.1.419-.152.8Z" transform="translate(-123.407 -21.436)" fill="#789e19"/>
        <path id="Path_116" data-name="Path 116" d="M169.157,30.369c.478.2.975.391,1.487.553A15.458,15.458,0,0,0,169.157,30.369Z" transform="translate(-151.716 -26.862)" fill="#6e891a"/>
        <path id="Path_117" data-name="Path 117" d="M136.913,31.724,136.67,30.5l-.28,2.394a18.81,18.81,0,0,0,2.169,10.3c6.074-.857,9.938,4.491,11.833,7.089a1.979,1.979,0,0,0,.52.484,5.627,5.627,0,0,1,.055-.755,8.167,8.167,0,0,1,.152-.8l.416-2.215a15.429,15.429,0,0,0-.037-3.9A15.427,15.427,0,0,1,136.913,31.724Z" transform="translate(-123.407 -26.975)" fill="#6e891a"/>
        <path id="Path_118" data-name="Path 118" d="M94.907,122.591c8.251,3.366,11.313,13.222,11.313,20.568,0,13.082-12.845,30.926-21.1,30.926a10.918,10.918,0,0,1-5.377-1.974,5.2,5.2,0,0,0-4.28,0,11.016,11.016,0,0,1-5.377,1.974c-9.863,0-21.02-17.641-21.1-30.926-.037-6.4,3.486-18.536,13.045-21.155a10.322,10.322,0,0,1,1.277-.267c6.074-.857,9.938,4.491,11.833,7.089a1.978,1.978,0,0,0,.52.484,3.815,3.815,0,0,0,4.164-.271,2.663,2.663,0,0,0,.238-.213c2.523-2.549,6.3-8.689,13.11-6.822A15.074,15.074,0,0,1,94.907,122.591Z" transform="translate(-48.159 -105.52)" fill="#fc324b"/>
        <path id="Path_119" data-name="Path 119" d="M62.167,149.215c-3.3-5.99-6.189-19.19,1.451-26.531a11.03,11.03,0,0,1,1.063-.9c.059-.043.118-.085.177-.127a9.165,9.165,0,0,0-1.548.087,10.318,10.318,0,0,0-1.277.267c-9.558,2.62-13.082,14.758-13.044,21.155.079,13.284,11.236,30.926,21.1,30.926a11.016,11.016,0,0,0,5.377-1.974,5.2,5.2,0,0,1,4.28,0,10.918,10.918,0,0,0,5.377,1.974c2.878,0,6.314-2.17,9.569-5.551C84.716,170.321,68.333,160.4,62.167,149.215Z" transform="translate(-48.159 -105.526)" fill="#e01b33"/>
        <g id="Group_162" data-name="Group 162" transform="translate(0 0)">
          <path id="Path_120" data-name="Path 120" d="M64.918,74.393a11.586,11.586,0,0,0,5.811-2.1,4.457,4.457,0,0,1,3.416,0c1.294.783,3.461,2.094,5.807,2.094,2.158,0,4.68-1.1,7.294-3.172a36.813,36.813,0,0,0,7.031-7.74c4.761-6.84,7.6-14.632,7.6-20.843,0-8.068-3.345-17.118-10.73-20.834a12.382,12.382,0,0,0,2.286-3.778l.7-1.823a1.487,1.487,0,0,0-.089-1.256,1.525,1.525,0,0,0-1-.747l-1.953-.438a14.451,14.451,0,0,0-7.5.192,11.063,11.063,0,0,0-2.189.962c1.3-2.7,2.23-5.15,2.145-7.031A2.964,2.964,0,0,0,80.632,5a2.92,2.92,0,0,0-2.921,2.906c-.046,2.5-2.08,6.514-4.047,10.394-.585,1.154-1.161,2.29-1.686,3.385A16.249,16.249,0,0,0,60.017,7.523L57.57,6.865a1.693,1.693,0,0,0-1.274.163l-.053.032c-.022.014-.044.025-.066.039a1.7,1.7,0,0,0-.733,1.207l-.3,2.516a19.767,19.767,0,0,0,1.758,9.792c-.087.022-.174.044-.262.068C52.2,21.9,48.517,25.218,46,30.274A29.208,29.208,0,0,0,42.99,42.643c.039,6.527,2.663,14.339,7.019,20.9C54.589,70.438,60.024,74.393,64.918,74.393ZM90.73,15.38l1.791.4-.633,1.65A10.741,10.741,0,0,1,89.537,21.1q-.638-.235-1.311-.421C82.44,19.1,78.7,22.787,76.146,25.667a62.3,62.3,0,0,1,3.106-6.523C81.58,15.689,85.838,14.283,90.73,15.38ZM71.365,28.186l.152-.808a45.753,45.753,0,0,1,3.626-8.328C77.2,15,79.317,10.819,79.369,7.936a1.273,1.273,0,0,1,1.263-1.277,1.3,1.3,0,0,1,1.263,1.3C82,10.3,79.9,14.317,77.874,18.2l-.349.67c-1.829,3.509-3.484,6.8-3.677,9.2a3.113,3.113,0,0,1-1.764.375,2.794,2.794,0,0,1-.731-.151c0-.036.009-.072.013-.108ZM56.8,11.016l.17-1.446,5.315,7.455a.829.829,0,1,0,1.351-.963l-5.16-7.237,1.115.3A14.594,14.594,0,0,1,70.3,24.892l-.367,1.955a20.853,20.853,0,0,0-4.264-4.392,10.3,10.3,0,0,0-7.054-2.124A17.949,17.949,0,0,1,56.8,11.016Zm-9.31,20c1.6-3.223,4.57-7.353,9.6-8.731A8.468,8.468,0,0,1,64.69,23.8a21.867,21.867,0,0,1,4.58,4.949l.036.049a2.815,2.815,0,0,0,.7.665l.049.033a4.048,4.048,0,0,0,1.9.606,4.616,4.616,0,0,0,3.211-.93l.033-.028a3.664,3.664,0,0,0,.281-.254c.418-.422.863-.932,1.334-1.472,2.419-2.772,5.734-6.568,10.968-5.134a14.59,14.59,0,0,1,1.623.55l.013.005c8.474,3.44,10.8,13.872,10.8,19.8,0,5.885-2.731,13.323-7.306,19.9-4.313,6.2-9.4,10.2-12.964,10.2-1.883,0-3.8-1.161-4.948-1.854a4.916,4.916,0,0,0-2.487-.581,5.561,5.561,0,0,0-2.655.583,10.165,10.165,0,0,1-4.944,1.851c-4.266,0-9.323-3.78-13.528-10.111-4.185-6.3-6.705-13.774-6.742-19.991a27.443,27.443,0,0,1,2.837-11.62Z" transform="translate(-42.99 -5)" fill="#151515"/>
          <path id="Path_121" data-name="Path 121" d="M95.109,205.862a.829.829,0,0,0,.662-.968,19.738,19.738,0,0,1,.462-10.314,9.53,9.53,0,0,1,1.78-3.218.829.829,0,1,0-1.177-1.168c-.189.19-4.615,4.769-2.7,15.006a.828.828,0,0,0,.968.662Z" transform="translate(-86.656 -164.383)" fill="#151515"/>
          <path id="Path_122" data-name="Path 122" d="M101.175,312.972a.83.83,0,0,0,.811-1.006l-.366-1.682a.829.829,0,1,0-1.621.353l.366,1.682A.829.829,0,0,0,101.175,312.972Z" transform="translate(-92.102 -267.521)" fill="#151515"/>
        </g>
      </g>
    </g>
  </g>
</svg>
