<svg xmlns="http://www.w3.org/2000/svg" width="150" height="150" viewBox="0 0 150 150">
  <g id="meat" transform="translate(-1064 1914)">
    <g id="Group_164" data-name="Group 164" transform="translate(300 17)">
      <path id="Path_99" data-name="Path 99" d="M0,0H150V150H0Z" transform="translate(764 -1931)" fill="none"/>
    </g>
    <g id="barbecue" transform="matrix(0.839, 0.545, -0.545, 0.839, 1097.197, -1915.751)">
      <path id="Path_123" data-name="Path 123" d="M74.17,73.136c9.676-4.217,1.829-15.3,15.6-21.835,12.2-5.787,24.96-7.546,22.712-25.106C110.253,8.746,78.963-.746,60.511,16.771,41.288,35.02,52.113,82.749,74.17,73.136Z" transform="translate(-6.368 -6.326)" fill="#ff7b8b"/>
      <path id="Path_124" data-name="Path 124" d="M98.874,97.8c4.9-2.125,2.748-17.552,15.445-22.006,11.72-4.112,21.054-9.191,20.456-18.718-.812-12.949-29.135-22.955-45.167-7.233C73.969,65.175,81.5,105.327,98.874,97.8Z" transform="translate(-32.278 -35.471)" fill="#ff4755"/>
      <path id="Path_125" data-name="Path 125" d="M89.775,181.924c-13.775,6.533-5.928,17.618-15.6,21.835-14.057,6.126-23.551-11.038-23.613-29.018h0l.025,7.474h.005c.221,16.323,8.722,32.678,23.4,30.98,10.362-1.2,9.808-19.066,15.793-22.708,10.714-6.52,23.052-7.441,22.958-21.6h0v-7.51c-.4,13.371-11.907,15.308-22.961,20.55Z" transform="translate(-6.369 -136.949)" fill="#994e37"/>
      <path id="Path_126" data-name="Path 126" d="M108.968,187.761c-7.838,5.374-5.431,21.509-15.793,22.708-8.166.945-14.418-3.7-18.4-10.821,3.835,8.621,10.593,14.606,19.76,13.546,10.362-1.2,9.808-19.066,15.793-22.708,10.714-6.52,23.052-7.441,22.958-21.6h0v-7.51c.011,18.875-13.979,19.3-24.323,26.387Z" transform="translate(-26.924 -136.949)" fill="#8c4534"/>
      <ellipse id="Ellipse_14" data-name="Ellipse 14" cx="6.326" cy="4.126" rx="6.326" ry="4.126" transform="translate(70.325 18.545)" fill="#f4e9d3"/>
      <path id="Path_127" data-name="Path 127" d="M229.574,143.543c-2.761,0-5.108-1.154-5.971-2.763a2.863,2.863,0,0,0-.355,1.362c0,2.279,2.832,4.126,6.326,4.126s6.326-1.847,6.326-4.126a2.863,2.863,0,0,0-.355-1.362C234.682,142.389,232.335,143.543,229.574,143.543Z" transform="translate(-152.923 -119.472)" fill="#e5d6be"/>
      <path id="Path_128" data-name="Path 128" d="M134.447,19.725a18.7,18.7,0,0,0-5.441-10.686,29.572,29.572,0,0,0-11.189-6.9A38.244,38.244,0,0,0,98.97.51a35.005,35.005,0,0,0-18.4,9.112,28.924,28.924,0,0,0-5.32,6.942,1.135,1.135,0,1,0,1.984,1.1,26.651,26.651,0,0,1,4.9-6.4A32.741,32.741,0,0,1,99.345,2.749a35.936,35.936,0,0,1,17.71,1.531,27.3,27.3,0,0,1,10.331,6.35,16.46,16.46,0,0,1,4.809,9.383c.743,5.8-.128,10.023-2.741,13.28-2.319,2.89-5.789,4.787-10.286,6.746a1.135,1.135,0,1,0,.907,2.081c5.012-2.183,9.674-4.633,12.336-9.087-.393,9-6.488,11.809-14.13,15.325a79.222,79.222,0,0,0-8.26,4.207c-2.785,1.695-4.212,5.75-5.721,10.042-.532,1.511-1.081,3.074-1.7,4.544a1.135,1.135,0,0,0,2.095.875c.639-1.531,1.2-3.125,1.742-4.666,1.372-3.9,2.667-7.583,4.76-8.856a77.482,77.482,0,0,1,8.029-4.084C127.207,46.75,134.743,43.284,134.7,32c0-.023,0-.047,0-.07V24.427a30.38,30.38,0,0,0-.258-4.7Z" transform="translate(-27.201 0)"/>
      <path id="Path_129" data-name="Path 129" d="M75,183.342a1.135,1.135,0,0,0-1.571.33c-1.646,2.52-3.534,3.823-5.941,4.1a15.3,15.3,0,0,1-12.294-3.911c-3.619-3.18-6.431-8.135-8.106-13.973a25.937,25.937,0,0,0,5.309,7.763,14.534,14.534,0,0,0,7.174,3.955,12.778,12.778,0,0,0,2.572.26,15.277,15.277,0,0,0,6.118-1.36c4.95-2.157,5.828-6.037,6.677-9.788.974-4.3,1.981-8.751,8.959-12.06,1.611-.764,3.251-1.464,4.783-2.108a1.135,1.135,0,0,0-.879-2.093c-1.557.654-3.226,1.366-4.877,2.15-7.976,3.783-9.21,9.232-10.2,13.61-.823,3.637-1.473,6.51-5.37,8.208a12.076,12.076,0,0,1-7.327.957,12.307,12.307,0,0,1-6.055-3.366c-3.986-3.841-6.94-10.551-8.1-18.411a46.281,46.281,0,0,1,2.3-23.3,1.135,1.135,0,1,0-2.113-.829,46.542,46.542,0,0,0-2.99,17.681l.023,6.771a1.118,1.118,0,0,0,.007.122c.18,11.387,4.238,21.923,10.6,27.518a17.724,17.724,0,0,0,11.881,4.587,18.862,18.862,0,0,0,2.173-.127c3.086-.357,5.566-2.03,7.581-5.116a1.135,1.135,0,0,0-.33-1.571Z" transform="translate(0 -112.661)"/>
      <path id="Path_130" data-name="Path 130" d="M223.233,125.539c4.183,0,7.46-2.311,7.46-5.26s-3.277-5.261-7.461-5.261-7.46,2.311-7.46,5.261,3.277,5.26,7.46,5.26Zm0-8.251c2.765,0,5.19,1.4,5.19,2.99s-2.425,2.99-5.19,2.99-5.19-1.4-5.19-2.99S220.469,117.288,223.233,117.288Z" transform="translate(-146.579 -97.609)"/>
    </g>
  </g>
</svg>
