<svg xmlns="http://www.w3.org/2000/svg" width="150" height="150" viewBox="0 0 150 150">
  <g id="pcare" transform="translate(-2089 1914)">
    <g id="Group_188" data-name="Group 188" transform="translate(1325 17)">
      <path id="Path_99" data-name="Path 99" d="M0,0H150V150H0Z" transform="translate(764 -1931)" fill="none"/>
    </g>
    <g id="health" transform="translate(2115 -1888.269)">
      <path id="Path_244" data-name="Path 244" d="M42.875,22.751c-2.517,2.515-5.873,5.874-8.108,8.107L54.722,50.813l8.107-8.107a3.023,3.023,0,0,0,0-4.276L47.15,22.751A3.023,3.023,0,0,0,42.875,22.751Z" transform="translate(-28.089 -17.448)" fill="#b3e5bd"/>
      <path id="Path_245" data-name="Path 245" d="M37.7,33.5C39.575,31.633,43,28.21,45.809,25.4a3.022,3.022,0,0,1,3.368-.622L47.15,22.751a3.023,3.023,0,0,0-4.275,0c-2.517,2.515-5.873,5.874-8.108,8.107L54.722,50.813l.143-.143Z" transform="translate(-28.089 -17.448)" fill="#92cc9b"/>
      <g id="Group_190" data-name="Group 190" transform="translate(10.227 6.715)">
        <rect id="Rectangle_3" data-name="Rectangle 3" width="2.889" height="14.488" transform="matrix(0.707, 0.707, -0.707, 0.707, 21.406, 11.155)" fill="#c6f4ce"/>
        <rect id="Rectangle_4" data-name="Rectangle 4" width="2.889" height="14.488" transform="matrix(-0.707, -0.707, 0.707, -0.707, 7.625, 17.864)" fill="#c6f4ce"/>
        <rect id="Rectangle_5" data-name="Rectangle 5" width="2.889" height="14.488" transform="translate(2.042 12.287) rotate(-135)" fill="#c6f4ce"/>
      </g>
      <g id="Group_191" data-name="Group 191" transform="translate(10.228 6.715)">
        <path id="Path_246" data-name="Path 246" d="M105.057,33.828l-.365.365a3.031,3.031,0,0,1,.979.249Z" transform="translate(-94.812 -33.828)" fill="#b1e8b9"/>
        <rect id="Rectangle_6" data-name="Rectangle 6" width="2.889" height="0.202" transform="translate(2.042 12.288) rotate(-135)" fill="#b1e8b9"/>
      </g>
      <path id="Path_247" data-name="Path 247" d="M405.652,29.477l10.61-10.61a2.364,2.364,0,0,0,0-3.342L410,9.26a2.363,2.363,0,0,0-3.342,0l-10.61,10.61Z" transform="translate(-319.978 -6.705)" fill="#b0dcf7"/>
      <path id="Path_248" data-name="Path 248" d="M411.714,13.693a2.759,2.759,0,0,1,1.907-.809L410,9.26a2.363,2.363,0,0,0-3.342,0l-10.61,10.61,4.746,4.746Z" transform="translate(-319.978 -6.705)" fill="#8dc1db"/>
      <rect id="Rectangle_7" data-name="Rectangle 7" width="6.498" height="13.586" transform="translate(76.07 13.168) rotate(-45)" fill="#71bde2"/>
      <rect id="Rectangle_8" data-name="Rectangle 8" width="6.498" height="6.711" transform="translate(85.407 13.311) rotate(135)" fill="#48a6cc"/>
      <path id="Path_249" data-name="Path 249" d="M95.994,60.742,78.357,43.1a1.772,1.772,0,0,0-2.439-.064L57.608,59.535h0C4.4,107.469,7.676,104.193,7.648,105.281a1.775,1.775,0,0,0,.519,1.3l24.352,24.352a1.772,1.772,0,0,0,2.57-.067l36.8-40.847h0L82.221,78.541h0l13.837-15.36A1.772,1.772,0,0,0,95.994,60.742Z" transform="translate(-6.154 -34.189)" fill="#97d3a1"/>
      <path id="Path_250" data-name="Path 250" d="M78.9,45.473a1.787,1.787,0,0,1,1.331-.455L78.316,43.1a1.772,1.772,0,0,0-2.439-.064c-72.58,65.378-68.24,61.106-68.27,62.24-.024.956.478,1.259,2.184,2.965C9.953,107.3,5.89,111.239,78.9,45.473Z" transform="translate(-6.113 -34.188)" fill="#8dc1db"/>
      <path id="Path_251" data-name="Path 251" d="M131.849,91.526,111.161,70.838,92.922,87.267h0L77.371,101.277h0l-19.3,17.387,25.955,25.955,21.583-23.96h0Z" transform="translate(-46.916 -57.015)" fill="#29c17e"/>
      <path id="Path_252" data-name="Path 252" d="M58.069,118.663l2.712,2.712L113.873,73.55l-2.712-2.712Z" transform="translate(-46.916 -57.015)" fill="#b3e5bd"/>
      <path id="Path_253" data-name="Path 253" d="M304.565,75.573a50.322,50.322,0,0,0,7.954,35.926l17.991-19.972L309.821,70.838Z" transform="translate(-245.576 -57.015)" fill="#29c17e"/>
      <path id="Path_254" data-name="Path 254" d="M304.221,81.231l8.526-7.681-2.712-2.712-5.257,4.735A50.652,50.652,0,0,0,304.221,81.231Z" transform="translate(-245.79 -57.016)" fill="#97d3a1"/>
      <path id="Path_255" data-name="Path 255" d="M52.861,94.687a5.312,5.312,0,0,1,.731-.6L37.948,88.594,13.155,63.8A3.149,3.149,0,1,0,8.7,68.255C35.983,95.536,34.22,93.962,35.186,94.3l16.41,5.758A5.247,5.247,0,0,1,52.861,94.687Z" transform="translate(-6.285 -50.584)" fill="#29c17e"/>
      <path id="Path_256" data-name="Path 256" d="M51.614,98.545C35.4,92.854,36.236,93.269,35.541,92.576l-25.3-25.3a3.134,3.134,0,0,1-.917-2.1A3.146,3.146,0,0,0,8.7,70.114C35.983,97.395,34.22,95.82,35.186,96.159l16.41,5.758A5.283,5.283,0,0,1,51.614,98.545Z" transform="translate(-6.285 -52.443)" fill="#52a35d"/>
      <path id="Path_257" data-name="Path 257" d="M284.1,262.659l-41.641-41.64a5.251,5.251,0,1,0-7.426,7.426l41.641,41.641a5.251,5.251,0,1,0,7.426-7.427Z" transform="translate(-188.644 -177.107)" fill="#64b573"/>
      <path id="Path_258" data-name="Path 258" d="M280.478,266.992l-41.641-41.641a5.25,5.25,0,0,1-1.359-5.072,5.252,5.252,0,0,0-2.45,8.811l41.641,41.641a5.254,5.254,0,0,0,8.785-2.354A5.248,5.248,0,0,1,280.478,266.992Z" transform="translate(-188.644 -177.753)" fill="#29c17e"/>
      <rect id="Rectangle_9" data-name="Rectangle 9" width="10.502" height="43.59" transform="translate(90.166 80.269) rotate(135)" fill="#b3e5bd"/>
      <rect id="Rectangle_10" data-name="Rectangle 10" width="5.338" height="43.59" transform="translate(86.515 83.922) rotate(135)" fill="#97d3a1"/>
      <path id="Path_259" data-name="Path 259" d="M96.374,84.555l-17.4-17.4a1.44,1.44,0,0,0-2.037,2.037L88.048,80.3l-5.371,5.371-28.71-28.71,5.371-5.37L73.669,65.925a1.44,1.44,0,0,0,2.037-2.037L67.5,55.682,77.55,44.527a1.44,1.44,0,0,0-2.14-1.928L65.461,53.643C54.38,42.562,54.536,42.48,53.085,41.757a6.7,6.7,0,0,0-6.118.089l-8.549-3L63.984,15.818l18.7,18.7-4.057,4.5a1.44,1.44,0,1,0,2.14,1.928L90.7,29.928a3.207,3.207,0,0,0-.115-4.416l-2.945-2.945L97.206,13a3.8,3.8,0,0,0,0-5.371l-6.25-6.25a3.8,3.8,0,0,0-5.371,0L76.02,10.947,72.992,7.918A3.207,3.207,0,0,0,68.576,7.8L35.32,37.76l-3-1.052-3.575-3.575,7.068-7.068a4.454,4.454,0,0,0,0-6.3L20.174,4.123a4.453,4.453,0,0,0-6.3,0L6.64,11.354a4.583,4.583,0,0,0-5.3,7.335C28.6,45.95,26.79,44.249,27.614,44.7L1.06,68.622a3.212,3.212,0,0,0-.12,4.651L25.231,97.565a3.208,3.208,0,0,0,4.652-.122L58.549,65.62,86.929,94a6.679,6.679,0,1,0,9.445-9.445ZM51.93,54.927c-4.563-4.563-6.075-5.428-5.526-7.991a3.8,3.8,0,0,1,5.244-2.668c.991.438,1.222.858,5.653,5.289ZM85.6,20.53l-7.546-7.546L80.6,10.438l7.546,7.546ZM88.271,3.151c.525,0,.141-.238,6.9,6.518a.918.918,0,0,1,0,1.3l-4.981,4.981L82.641,8.4C88.023,3.019,87.755,3.151,88.271,3.151ZM70.5,9.944c.318-.287-.8-1.242,18.044,17.605A.327.327,0,0,1,88.56,28l-3.943,4.377-18.49-18.49ZM25.072,13.095l-8.182,8.182-2.984-2.984,8.182-8.182Zm5.021,5.021L21.91,26.3l-2.984-2.984,8.182-8.182Zm4.146,4.8c0,.874.184.468-7.53,8.182l-2.762-2.761,8.182-8.182C33.854,21.877,34.239,22.092,34.239,22.914ZM17.023,5.7c.826,0,1,.351,3.028,2.375l-8.182,8.182L8.841,13.228C16.562,5.507,16.153,5.7,17.023,5.7ZM2.881,15.449a1.7,1.7,0,0,1,2.9-1.2C32.36,40.822,30.6,39.157,31.058,39.318l13.488,4.733a6.678,6.678,0,0,0-1.095,3.222L30.806,42.836c-1.661-.583-1.843-.6-2.189-.947C1.433,14.706,2.881,16.456,2.881,15.449ZM27.268,95.527l-3.6-3.6,2.808-2.808a1.44,1.44,0,1,0-2.037-2.037l-2.808,2.808-2.979-2.979L21.456,84.1a1.44,1.44,0,0,0-2.037-2.037l-2.808,2.808-2.978-2.978,2.808-2.808A1.44,1.44,0,0,0,14.4,77.048L11.6,79.856,8.617,76.877l2.808-2.808a1.44,1.44,0,1,0-2.037-2.037L6.58,74.84c-3.9-3.9-3.7-3.644-3.7-3.844s-.547.355,8.143-7.472L28.038,80.539A1.44,1.44,0,0,0,30.075,78.5L13.167,61.593,30.658,45.837l13.387,4.7c.763,1.658,1.128,1.711,12.463,13.046l-19.6,21.757-3.746-3.746a1.44,1.44,0,0,0-2.037,2.037l3.853,3.853C27.527,95.754,27.612,95.873,27.268,95.527Zm64.384-2.451a3.772,3.772,0,0,1-2.685-1.113l-4.252-4.252,5.371-5.371,4.252,4.252A3.8,3.8,0,0,1,91.652,93.076Z" fill="#231f20"/>
    </g>
  </g>
</svg>
