<svg xmlns="http://www.w3.org/2000/svg" width="150" height="150" viewBox="0 0 150 150">
  <g id="snacks" transform="translate(-1462 1914)">
    <g id="Group_166" data-name="Group 166" transform="translate(698 17)">
      <path id="Path_99" data-name="Path 99" d="M0,0H150V150H0Z" transform="translate(764 -1931)" fill="none"/>
    </g>
    <g id="food_1_" data-name="food (1)" transform="translate(1484.907 -1886.551)">
      <path id="Path_172" data-name="Path 172" d="M52.632,40.811c-19.41,0-28.789,7.692-28.789,7.692L30.595,98.8H74.669L81.42,48.5S72.042,40.811,52.632,40.811Z" transform="translate(-0.496 -10.265)" fill="#ef3829"/>
      <g id="Group_171" data-name="Group 171" transform="translate(26.533 5.796)">
        <path id="Path_173" data-name="Path 173" d="M63.261,36.429c1.267,0,2.49.034,3.673.1a8.487,8.487,0,0,1,16.544,2.662c0,.177-.016.351-.027.525a40.954,40.954,0,0,1,5.132,2.249,13.873,13.873,0,1,0-27.194-5.507Q62.31,36.43,63.261,36.429Z" transform="translate(-37.658 -11.679)" fill="#ffde3e"/>
        <path id="Path_174" data-name="Path 174" d="M33.7,39.711c-.011-.174-.027-.348-.027-.525a8.487,8.487,0,0,1,16.546-2.662c1.183-.062,2.405-.1,3.673-.1q.953,0,1.871.025a13.874,13.874,0,0,0-27.2,5.507A40.952,40.952,0,0,1,33.7,39.711Z" transform="translate(-28.286 -11.679)" fill="#ffde3e"/>
        <path id="Path_175" data-name="Path 175" d="M50.527,31.5a69.228,69.228,0,0,1,15.987,0,13.874,13.874,0,1,0-15.987,0Zm7.994-19.816a8.49,8.49,0,1,1-8.49,8.49,8.49,8.49,0,0,1,8.49-8.49Z" transform="translate(-32.918 -6.288)" fill="#ffde3e"/>
      </g>
      <path id="Path_176" data-name="Path 176" d="M80.193,72.624H26.673L28.845,88.8H78.021Z" transform="translate(-1.297 -19.271)" fill="#f2e7cb"/>
      <g id="Group_172" data-name="Group 172" transform="translate(22.092 4.551)">
        <path id="Path_177" data-name="Path 177" d="M81.721,37.268a21.645,21.645,0,0,0-2.888-1.883,15.276,15.276,0,0,0,.16-2.079,15.051,15.051,0,0,0-2.622-8.517A1.255,1.255,0,1,0,74.3,26.2a12.549,12.549,0,0,1,2.186,7.1c0,.287-.024.569-.042.852-.847-.4-1.8-.806-2.85-1.211a9.745,9.745,0,0,0-8.287-9.266,1.228,1.228,0,0,0-.237-.037A9.647,9.647,0,0,0,54.988,29.3a14.961,14.961,0,0,0-1.376-3.348,12.626,12.626,0,0,1,16.8-3.441,1.254,1.254,0,1,0,1.3-2.144A15.061,15.061,0,0,0,67.2,18.552a15.109,15.109,0,0,0-30.138,0,14.983,14.983,0,0,0-11.628,16.83,21.644,21.644,0,0,0-2.888,1.883A1.255,1.255,0,0,0,22.1,38.4L26.3,69.7a.283.283,0,0,0,.01.041,1.037,1.037,0,0,0,.032.132,1.081,1.081,0,0,0,.034.11c.015.039.034.076.052.113s.037.072.059.108a.853.853,0,0,0,.065.09,1.286,1.286,0,0,0,.085.1c.024.024.049.047.072.072a1.255,1.255,0,0,0,.108.088c.027.019.054.035.082.052a1.218,1.218,0,0,0,.128.072c.029.013.059.023.089.034a1.176,1.176,0,0,0,.143.044c.032.008.064.011.1.016a1.252,1.252,0,0,0,.148.015H75.292L73.078,87.275H31.2l-.374-2.786a1.255,1.255,0,1,0-2.487.333l.52,3.875A1.255,1.255,0,0,0,30.1,89.784H74.173A1.255,1.255,0,0,0,75.417,88.7L82.169,38.4a1.255,1.255,0,0,0-.447-1.136ZM70.981,32.027a55.428,55.428,0,0,0-7.93-1.879,15.1,15.1,0,0,0,2.682-3.826,7.246,7.246,0,0,1,5.248,5.705Zm-8-5.9A12.631,12.631,0,0,1,59.791,29.7c-.68-.072-1.374-.143-2.087-.2a7.216,7.216,0,0,1,5.28-3.379ZM52.126,23.763a15.2,15.2,0,0,0-7.179-4.875,7.232,7.232,0,0,1,14.375-.019,15.032,15.032,0,0,0-7.2,4.9Zm.01-16.7A12.651,12.651,0,0,1,64.663,18.207c-.265-.014-.531-.027-.8-.027a15.319,15.319,0,0,0-2.092.147,9.731,9.731,0,0,0-19.278.012,15.055,15.055,0,0,0-2.09-.159c-.27,0-.533.027-.8.04A12.65,12.65,0,0,1,52.136,7.064ZM27.788,33.3a12.614,12.614,0,0,1,24.575-4.01h-.227c-.969,0-1.906.023-2.826.059a9.655,9.655,0,0,0-10.1-5.711,1.21,1.21,0,0,0-.241.037,9.745,9.745,0,0,0-8.286,9.266c-1.053.405-2.007.814-2.85,1.211-.019-.283-.042-.567-.042-.852Zm10.754-6.982a15.1,15.1,0,0,0,2.682,3.826,55.428,55.428,0,0,0-7.93,1.879,7.246,7.246,0,0,1,5.247-5.7ZM44.482,29.7a12.627,12.627,0,0,1-3.192-3.577,7.214,7.214,0,0,1,5.279,3.379c-.714.056-1.408.123-2.088.2Zm7.654,2.1c12.22,0,20.4,3.144,24.615,5.335a1.251,1.251,0,0,0,.238.125,26.664,26.664,0,0,1,2.594,1.549L77.8,52.1H26.471L24.689,38.81C26.93,37.27,36.021,31.8,52.136,31.8ZM28.645,68.277,26.811,54.607H77.462L75.626,68.277Z" transform="translate(-22.092 -4.551)"/>
        <path id="Path_178" data-name="Path 178" d="M30.951,107.693a1.255,1.255,0,0,0,1.075-1.409l-.43-3.2a1.255,1.255,0,1,0-2.487.333l.43,3.2a1.255,1.255,0,0,0,1.242,1.088,1.224,1.224,0,0,0,.17-.011Z" transform="translate(-24.076 -32.137)"/>
        <path id="Path_179" data-name="Path 179" d="M69.361,50.048c1.236.1,2.465.236,3.653.417a1.229,1.229,0,0,0,.191.015,1.255,1.255,0,0,0,.188-2.495c-1.248-.191-2.539-.339-3.838-.439a1.255,1.255,0,1,0-.194,2.5Z" transform="translate(-35.146 -16.722)"/>
        <path id="Path_180" data-name="Path 180" d="M80.931,51.968c6.452,1.71,9.686,4.291,9.718,4.316a1.255,1.255,0,1,0,1.588-1.943c-.143-.119-3.635-2.939-10.664-4.8a1.254,1.254,0,1,0-.645,2.425Z" transform="translate(-38.485 -17.276)"/>
      </g>
    </g>
  </g>
</svg>
