<svg xmlns="http://www.w3.org/2000/svg" width="150" height="150" viewBox="0 0 150 150">
  <g id="vegetables" transform="translate(-764 1931)">
    <path id="Path_99" data-name="Path 99" d="M0,0H150V150H0Z" transform="translate(764 -1931)" fill="none"/>
    <g id="Group_156" data-name="Group 156" transform="translate(-23 -16)">
      <g id="vegetarian" transform="translate(797 -1883.38)">
        <path id="Path_75" data-name="Path 75" d="M320.909,19.538c4.337,2.258,4.652,7.678,4.024,10.348l-1.359-2.436L322.539,25.6a.306.306,0,0,0-.5-.045l-2.92,3.595L317.744,24a.227.227,0,0,0-.431-.029,13.565,13.565,0,0,1-3.377,4.529,22.754,22.754,0,0,1-.4-4.5.393.393,0,0,0-.587-.369c-.477.275-1.124.7-2.057,1.369-.611.44-1.345.99-2.233,1.674a8.1,8.1,0,0,1,7.619-8.159v0a16.27,16.27,0,0,0,.05-2.117c0-3-1.456-5.4,1.523-5.4,2.6,0,3.154,2.4,3.154,5.4a28.248,28.248,0,0,1-.1,3.136Z" transform="translate(-276.576 -10.161)" fill="#3e9e4e"/>
        <path id="Path_76" data-name="Path 76" d="M377.026,19.808h0a28.255,28.255,0,0,0,.1-3.136c0-2.768-.47-5.025-2.588-5.357,1.505,1.156,1.244,3.46.454,6.086a31.164,31.164,0,0,1-1.091,3.248h0c1.97,3.206,2.629,5.024,2.321,7.55l1.93-2.376a.306.306,0,0,1,.5.045l1.035,1.854,1.359,2.436C381.678,27.485,381.364,22.066,377.026,19.808Z" transform="translate(-332.694 -10.431)" fill="#136b0a"/>
        <path id="Path_77" data-name="Path 77" d="M131.358,104.872c.073,37.432-17.63,52.063-30.413,52.063-8.7,0-15.745-6.714-15.745-15a15.078,15.078,0,0,1,10.613-14.181c2.089-.857,4.561-1.769,7.062-2.973a29.2,29.2,0,0,0,7.233-4.736c7.149-6.594,7.841-14.37,8.571-17.621h0c.933-.671,1.58-1.093,2.057-1.369a.393.393,0,0,1,.587.369,22.754,22.754,0,0,0,.4,4.5A13.565,13.565,0,0,0,125.1,101.4a.227.227,0,0,1,.431.029l1.37,5.141,2.92-3.595a.306.306,0,0,1,.5.045Z" transform="translate(-84.361 -87.582)" fill="#471b7a"/>
        <path id="Path_78" data-name="Path 78" d="M131.393,114.851a.3.3,0,0,0-.076-.088c-8.168,35.38-28.206,45.56-40.522,42.861A16.473,16.473,0,0,1,86.443,156a15.527,15.527,0,0,0,15.572,12.763c12.783,0,30.486-14.631,30.413-52.063Z" transform="translate(-85.43 -99.416)" fill="#60379b"/>
        <g id="Group_153" data-name="Group 153" transform="translate(0 0)">
          <path id="Path_79" data-name="Path 79" d="M95.783,75.191c5.846,0,11.859-2.8,16.931-7.881A44.511,44.511,0,0,0,122.9,50.234,82.215,82.215,0,0,0,127,25.352a.836.836,0,0,0,.554.212.863.863,0,0,0,.116-.008.839.839,0,0,0,.7-.639,12.171,12.171,0,0,0-.158-5.743,8.662,8.662,0,0,0-3.8-5.259c.056-.771.056-1.537.055-2.339v-.335c0-1.707,0-6.241-3.993-6.241a2.739,2.739,0,0,0-2.192.778c-.714.821-.553,1.966-.367,3.291a15.63,15.63,0,0,1,.2,2.171c0,.187,0,.365.005.539,0,.279.007.537,0,.8a8.464,8.464,0,0,0-5.226,2.725,9.151,9.151,0,0,0-2.447,6.217.839.839,0,0,0,1.351.664c.163-.126.32-.246.475-.364a25.918,25.918,0,0,1-7.893,15.031c-3.718,3.43-8.5,5.332-12.335,6.861-.584.233-1.137.453-1.673.672A15.91,15.91,0,0,0,79.2,59.357C79.2,68.088,86.638,75.191,95.783,75.191ZM118.922,14.2a.839.839,0,0,0,.8-.651l0-.007c.005-.023.009-.047.012-.071,0,0,0-.007,0-.01l0-.024s0-.008,0-.012a12.036,12.036,0,0,0,.058-1.668c0-.166,0-.336,0-.515a16.978,16.978,0,0,0-.214-2.4c-.113-.8-.24-1.713-.028-1.958.04-.047.228-.2.925-.2,1.2,0,2.315.553,2.315,4.563v.337c0,.783,0,1.529-.052,2.256a1.606,1.606,0,0,0,.185.875,1.637,1.637,0,0,0,.6.624,7.918,7.918,0,0,1,3.435,6.594l-.02-.036,0-.005-1.037-1.86a1.146,1.146,0,0,0-1.149-.578,1.192,1.192,0,0,0-.765.444l-1.858,2.286-.946-3.552a1.067,1.067,0,0,0-2.017-.134,10.82,10.82,0,0,1-2.026,3.062,15.434,15.434,0,0,1-.141-2.615,1.282,1.282,0,0,0-.341-.982,1.229,1.229,0,0,0-1.5-.208c-.554.322-1.264.795-2.141,1.426l-.01.007c-.2.146-.412.3-.633.461a7.2,7.2,0,0,1,6.556-5.446ZM90.877,45.983a.83.83,0,0,0,.091-.031c.539-.221,1.1-.445,1.695-.681,3.968-1.58,8.907-3.546,12.852-7.187,6.5-6,7.837-12.983,8.555-16.736.071-.373.135-.708.2-1.009q.574-.408,1.036-.71a26.835,26.835,0,0,0,.43,3.871.839.839,0,0,0,1.4.451,17.007,17.007,0,0,0,2.827-3.362l.962,3.611a.839.839,0,0,0,1.462.313l2.425-2.984.545.977c0,10.3-1.359,19.447-4.046,27.177a42.87,42.87,0,0,1-9.785,16.442c-4.756,4.765-10.347,7.389-15.744,7.389-8.22,0-14.906-6.35-14.906-14.157A14.235,14.235,0,0,1,90.877,45.983Z" transform="translate(-79.198 -5)" fill="#151515"/>
          <path id="Path_80" data-name="Path 80" d="M210.666,447.22a.838.838,0,0,0,.3-.056,24.708,24.708,0,0,0,3.062-1.422.839.839,0,0,0-.808-1.471,23.015,23.015,0,0,1-2.852,1.326.839.839,0,0,0,.3,1.623Z" transform="translate(-191.561 -382.761)" fill="#151515"/>
          <path id="Path_81" data-name="Path 81" d="M257.982,366.82a.835.835,0,0,0,.517-.179,31.68,31.68,0,0,0,2.58-2.263,38.587,38.587,0,0,0,6.193-8,.839.839,0,0,0-1.444-.854,36.922,36.922,0,0,1-5.921,7.65,29.954,29.954,0,0,1-2.443,2.143.839.839,0,0,0,.518,1.5Z" transform="translate(-232.262 -306.161)" fill="#151515"/>
        </g>
      </g>
      <g id="diet" transform="translate(827.612 -1879.358)">
        <path id="Path_82" data-name="Path 82" d="M128.493,27.023A13.847,13.847,0,0,1,124.38,23.1c.97.077,2.833.975,3.872.975,3.533,0,6.125-3.651,12.442-1.393l-2.276-9.766a1.651,1.651,0,1,1,3.213-.763l2.133,8.585h0c4.312-1.433,7.422,1.487,10.517,2.363a11.589,11.589,0,0,0,6.85-.417,15.28,15.28,0,0,1-4.867,4.292q-.33.16-.657.294a12.3,12.3,0,0,1-6.367.8,9.213,9.213,0,0,1,4.395,9.981c-.78-.7-1.995-2.325-3.1-2.817-1.366-.608-4.875-1.017-7.374-4.81-.9.029-1.267,4.482-5.171,5.344-1,.222-4.332.03-5,.6.431-4.482,4.309-5.516,2.93-8.974a9.862,9.862,0,0,1-7.433-.371Z" transform="translate(-112.459 -10.086)" fill="#97c447"/>
        <path id="Path_83" data-name="Path 83" d="M328.945,160.533c-.366-.024-.669-.06-.9-.092a9.406,9.406,0,0,1,1.521,1.1A9.113,9.113,0,0,0,328.945,160.533Z" transform="translate(-289.257 -139.911)" fill="#7c993c"/>
        <path id="Path_84" data-name="Path 84" d="M130.261,26.623c3.533,0,6.125-3.651,12.442-1.393l-2.276-9.766a1.648,1.648,0,0,1,1.527-2.013l-.322-1.3a1.651,1.651,0,1,0-3.213.763l2.276,9.766c-6.317-2.257-8.909,1.393-12.442,1.393-1.04,0-2.9-.9-3.872-.975a18.052,18.052,0,0,0,2.266,2.584A28.652,28.652,0,0,0,130.261,26.623Z" transform="translate(-112.459 -10.086)" fill="#7c993c"/>
        <path id="Path_85" data-name="Path 85" d="M82.418,133.524c8.712,4.4,14.6,12.818,14.6,22.476,0,14.214-12.757,25.736-28.495,25.736S40.03,170.214,40.03,156c0-9.894,6.18-18.482,15.242-22.79h0a9.862,9.862,0,0,0,7.433.371c1.379,3.458-2.5,4.493-2.93,8.974.668-.574,4-.383,5-.6,3.9-.862,4.274-5.314,5.171-5.344,2.5,3.793,6.008,4.2,7.374,4.81,1.1.492,2.317,2.119,3.1,2.817a9.213,9.213,0,0,0-4.395-9.981,12.3,12.3,0,0,0,6.367-.8Z" transform="translate(-39.238 -116.273)" fill="#f43b3b"/>
        <path id="Path_86" data-name="Path 86" d="M79.331,173.846c-15.738,0-28.495-11.522-28.495-25.736a23.764,23.764,0,0,1,3.939-13.064c-8.79,4.382-14.745,12.835-14.745,22.548,0,14.214,12.757,25.736,28.495,25.736,10.458,0,19.6-5.089,24.554-12.673A30.782,30.782,0,0,1,79.331,173.846Z" transform="translate(-39.238 -117.867)" fill="#d61d1d"/>
        <g id="Group_154" data-name="Group 154" transform="translate(0 0)">
          <path id="Path_87" data-name="Path 87" d="M42.638,63.353a31.488,31.488,0,0,0,41.359,0A25.165,25.165,0,0,0,92.6,44.567c0-9.157-5.229-17.653-13.744-22.489A16.722,16.722,0,0,0,83.353,17.9a.792.792,0,0,0-.95-1.191,10.773,10.773,0,0,1-6.331.387,17.474,17.474,0,0,1-2.627-1.087c-2.152-1.023-4.566-2.171-7.538-1.494L63.971,6.718a2.443,2.443,0,1,0-4.752,1.133l1.964,8.428a11.819,11.819,0,0,0-8.066.875,8.963,8.963,0,0,1-3.294.884,8.06,8.06,0,0,1-1.9-.48,9.158,9.158,0,0,0-1.909-.493.792.792,0,0,0-.708,1.248,17.365,17.365,0,0,0,3.165,3.381c-8.943,4.764-14.44,13.411-14.44,22.873A25.164,25.164,0,0,0,42.638,63.353Zm5.555-44.046a5.967,5.967,0,0,0,1.631.315,10.264,10.264,0,0,0,3.884-1c2.2-.886,4.483-1.8,8.292-.441a.792.792,0,0,0,1.037-.925L60.762,7.5a.86.86,0,1,1,1.673-.4L65.32,18.713a.792.792,0,0,0,1.537-.382l-.567-2.28c2.436-.536,4.487.44,6.476,1.385a18.6,18.6,0,0,0,2.876,1.181,11.325,11.325,0,0,0,4.784.231,11.549,11.549,0,0,1-2.932,2.169,11.534,11.534,0,0,1-6.568,1.021.792.792,0,0,0-.508,1.468,8.58,8.58,0,0,1,3.35,3.571,8.409,8.409,0,0,1,.859,3.977,7.627,7.627,0,0,0-2.19-1.791,11.13,11.13,0,0,0-1.088-.387A10.054,10.054,0,0,1,65.4,24.741a.792.792,0,0,0-.661-.356h-.025c-.781.025-1.144.785-1.564,1.665-.646,1.353-1.531,3.206-3.752,3.7a13.257,13.257,0,0,1-1.653.117c-.865.033-1.583.067-2.166.142A9.768,9.768,0,0,1,57.14,27.03c.984-1.427,2-2.9,1.1-5.174a.792.792,0,0,0-.994-.455,9.009,9.009,0,0,1-6.823-.333,8.8,8.8,0,0,1-2.225-1.761Zm1.878,3.347a10.508,10.508,0,0,0,6.894.483c.183,1.094-.365,1.888-1.128,2.994a9.873,9.873,0,0,0-2.055,4.916.792.792,0,0,0,1.289.689,11.339,11.339,0,0,1,2.734-.29,13.018,13.018,0,0,0,1.934-.153c2.975-.657,4.142-3.1,4.839-4.561.039-.081.081-.17.124-.259a11.834,11.834,0,0,0,6.162,3.912c.377.121.7.225.927.325a8.185,8.185,0,0,1,2,1.77c.32.345.622.671.893.913a.792.792,0,0,0,1.3-.422,10.145,10.145,0,0,0-.8-6.594,9.934,9.934,0,0,0-1.93-2.669,13.043,13.043,0,0,0,3.821-.795C85.685,27.359,91.02,35.633,91.02,44.567c0,13.755-12.428,24.945-27.7,24.945s-27.7-11.19-27.7-24.945C35.614,35.4,41.144,27.038,50.071,22.655Z" transform="translate(-34.031 -4.841)" fill="#151515"/>
          <path id="Path_88" data-name="Path 88" d="M117.076,400.278a.792.792,0,1,0,1.18-1.056,25.118,25.118,0,0,1-2.6-3.462.792.792,0,1,0-1.344.837A26.689,26.689,0,0,0,117.076,400.278Z" transform="translate(-103.615 -343.858)" fill="#151515"/>
          <path id="Path_89" data-name="Path 89" d="M88.945,257.581a.792.792,0,0,0,.491-1.006,22.709,22.709,0,0,1,.061-14.966A.792.792,0,1,0,88,241.081a24.293,24.293,0,0,0-.066,16.009.791.791,0,0,0,1.006.491Z" transform="translate(-79.677 -209.454)" fill="#151515"/>
        </g>
      </g>
      <g id="carrot" transform="translate(862.591 -1883.8) rotate(31)">
        <path id="Path_90" data-name="Path 90" d="M10.767,0,6.514,8.071,0,24.029,16.142,9.076,19.86,5.66Z" transform="translate(55.503 0.987)" fill="#97c447"/>
        <path id="Path_91" data-name="Path 91" d="M1.942,14.25,0,14.97l16.343-11.7L23.108,0,24.95,5.911Z" transform="translate(58.116 12.659)" fill="#97c447"/>
        <g id="Group_155" data-name="Group 155" transform="translate(52.657 0.987)">
          <path id="Path_92" data-name="Path 92" d="M23.108,0,16.343,3.265,0,14.97l1.942-.72,4.638-1.675,9.7-6.949A26.971,26.971,0,0,1,20.3,3.249l3.332-1.608Z" transform="translate(5.459 11.671)" fill="#619329"/>
          <path id="Path_93" data-name="Path 93" d="M18.989,9.076,17.85,7.937l-15,16.092,8.507-14.9-.6-.285,4.371-7.736L13.329,0,8.858,7.954l-3.4-1.608L.737,19.157,0,21.166c.268,2.177,3.282,5.358,5.459,5.459L21.8,14.92l1.775-1.273Z" transform="translate(0 0)" fill="#5b8722"/>
        </g>
        <path id="Path_94" data-name="Path 94" d="M1.675,16.059l.737-2.177L6.9.687,5.459,0,.737,12.81,0,14.82c.184,1.524,1.708,3.533,3.349,4.638a7.017,7.017,0,0,1-1.675-3.4Z" transform="translate(52.657 7.334)" fill="#8ecc3e"/>
        <path id="Path_95" data-name="Path 95" d="M38.624.3A16.127,16.127,0,0,1,41.856,0,20.578,20.578,0,0,1,44.9.236a15.713,15.713,0,0,1,2.78.854l.017.017c-1.088,1.557.318,5.04,3.3,8.021s6.464,4.387,8.021,3.3a16.113,16.113,0,0,1,.871,2.813c.536,3.734.5,9.813-4.538,13.379-.3.218-.62.419-.954.62L22.231,48.663,3.744,59.782A2.513,2.513,0,0,1,.328,56.366L7.981,43.69,30.9,5.695A11.133,11.133,0,0,1,38.624.3Z" transform="translate(1.004 18.97)" fill="#ff981d"/>
        <path id="Path_96" data-name="Path 96" d="M22.532,48.444l1.072-2.11L43.765,6.815a10.919,10.919,0,0,1,3.567-4.237A2.292,2.292,0,0,1,47.7,1.105l-.017-.017A16.624,16.624,0,0,0,44.9.234,23.116,23.116,0,0,0,41.856,0a17.321,17.321,0,0,0-3.232.3,11,11,0,0,0-7.7,5.409L7.981,43.705.328,56.381A2.513,2.513,0,0,0,3.744,59.8L22.231,48.645Z" transform="translate(1.021 18.972)" fill="#ed8115"/>
        <path id="Path_97" data-name="Path 97" d="M11.686,12.1c-1.557,1.088-5.04-.318-8.021-3.3S-.722,2.333.366.776A1.152,1.152,0,0,1,.551.558c.871-.871,2.579-.687,4.488.3L4.3,2.869C4.569,5.063,7.584,8.227,9.76,8.328l1.942-.7c.888,1.825,1.038,3.449.2,4.287A1.252,1.252,0,0,1,11.686,12.1Z" transform="translate(48.338 19.301)" fill="#edb740"/>
        <g id="XMLID_3_" transform="translate(27.349 37.804)">
          <path id="XMLID_4_" d="M6.955,7.843A16.725,16.725,0,0,1,1.948.676a1,1,0,0,0-1.892.653A18.624,18.624,0,0,0,5.683,9.383a1.03,1.03,0,0,0,.636.234.974.974,0,0,0,.77-.368A.992.992,0,0,0,6.955,7.843Z" transform="translate(0 0)" fill="#151515"/>
        </g>
        <path id="Path_98" data-name="Path 98" d="M84.021,18.268l-1.842-5.894a1,1,0,0,0-1.39-.6L76.72,13.731,73.1,10.114l2.93-2.679a.994.994,0,0,0,.3-.486A1.008,1.008,0,0,0,75.9,5.827L66.79.15A1,1,0,0,0,66,.033a.936.936,0,0,0-.62.5L61.532,7.853,58.568,6.446a.977.977,0,0,0-.435-.1A.989.989,0,0,0,57.178,7l-4.27,11.839c-1.842-.737-3.4-.7-4.421.067a17.3,17.3,0,0,0-1.742-.536c-.452-.084-.888-.167-1.34-.234-6.564-.77-11.638,1.373-14.351,6.062L.478,74.834c0,.017-.017.017-.017.033a3.428,3.428,0,0,0,.586,4.186,3.425,3.425,0,0,0,4.186.569c.017,0,.017-.017.033-.017L55.922,49.029c4.839-2.8,6.966-8.121,5.978-14.987a.1.1,0,0,0-.017-.067,18.47,18.47,0,0,0-.687-2.344c.754-.988.8-2.478.151-4.237L83.4,19.508a.988.988,0,0,0,.62-1.239ZM66.656,2.411l7.066,4.4L71.679,8.673l-.452-.452a1,1,0,0,0-.72-.3.99.99,0,0,0-.72.318l-9.126,9.779,4.22-7.4a1.038,1.038,0,0,0,.084-.8,1,1,0,0,0-.536-.6L63.34,8.69Zm-7.987,6.3,3.918,1.842L54.767,24.28a5.371,5.371,0,0,1-1.088-2.026ZM49.609,20.563c.352-.352,1.256-.4,2.612.151l-.569,1.557a7.713,7.713,0,0,0,2.294,4.1,6.63,6.63,0,0,0,4.119,2.244h.05a1.015,1.015,0,0,0,.586-.184l.77-.352c.469,1.239.4,2.093.084,2.411-.368.368-1.289.335-2.411-.084a12.944,12.944,0,0,1-4.4-3.031c-3.048-3.031-3.885-6.062-3.131-6.815Zm6.547,25.922A15.565,15.565,0,0,1,46.829,39.8a1.039,1.039,0,0,0-1.39-.318.994.994,0,0,0-.3,1.407,17.149,17.149,0,0,0,8.808,7L23,66.578A5.864,5.864,0,0,1,19.484,64.4a1.025,1.025,0,0,0-1.407-.184,1,1,0,0,0-.167,1.44,9.1,9.1,0,0,0,2.83,2.294L4.263,77.9a1.443,1.443,0,0,1-1.775-.251,1.443,1.443,0,0,1-.251-1.775l6.4-10.583a6.847,6.847,0,0,0,1.892,2.277,1.03,1.03,0,0,0,.636.234.975.975,0,0,0,.787-.385,1.034,1.034,0,0,0-.2-1.423,4.264,4.264,0,0,1-1.708-3.031L32.814,25.234a.016.016,0,0,1,.017-.017,9.813,9.813,0,0,1,5.509-4.538,12.008,12.008,0,0,0,3.433,9.545,1.007,1.007,0,1,0,1.373-1.474,9.787,9.787,0,0,1-2.662-8.574,17.507,17.507,0,0,1,4.672-.05,11.212,11.212,0,0,1,1.306.234c.335.084.67.2,1.021.3-.4,2.143,1.038,5.292,3.885,8.138a15.223,15.223,0,0,0,5.124,3.5,6.36,6.36,0,0,0,2.277.469,3.549,3.549,0,0,0,.737-.067,15.917,15.917,0,0,1,.469,1.691c.486,3.868.218,8.942-3.818,12.09Zm1.691-19.91a4.369,4.369,0,0,1-1.624-.854l.017-.017,14.3-15.339,4.153,4.153Zm6.8-2.395,10.6-7.586,5.375-2.529,1.206,3.868Z" transform="translate(0 0)" fill="#151515"/>
      </g>
    </g>
  </g>
</svg>
