<svg id="google" xmlns="http://www.w3.org/2000/svg" width="18" height="18" viewBox="0 0 18 18">
  <path id="Shape" d="M3.989,6.017,3.363,8.356,1.073,8.4A9.016,9.016,0,0,1,1.006,0h0L3.046.374,3.939,2.4a5.371,5.371,0,0,0,.05,3.616Z" transform="translate(0 4.861)" fill="#fbbb00"/>
  <path id="Shape-2" data-name="Shape" d="M8.645,0A9.01,9.01,0,0,1,8.8,1.681a9.017,9.017,0,0,1-.2,1.879A9,9,0,0,1,5.437,8.7h0L2.868,8.568,2.5,6.3A5.364,5.364,0,0,0,4.813,3.56H0V0H8.645Z" transform="translate(9.198 7.319)" fill="#518ef8"/>
  <path id="Shape-3" data-name="Shape" d="M13.561,5.14h0A8.962,8.962,0,0,1,7.927,7.122,9,9,0,0,1,0,2.387L2.917,0A5.351,5.351,0,0,0,7.927,3.472a5.321,5.321,0,0,0,2.7-.732Z" transform="translate(1.073 10.878)" fill="#28b446"/>
  <path id="Shape-4" data-name="Shape" d="M13.738,2.072,10.823,4.459a5.352,5.352,0,0,0-7.89,2.8L0,4.861H0A9,9,0,0,1,13.738,2.072Z" transform="translate(1.006)" fill="#f14336"/>
</svg>
