<svg xmlns="http://www.w3.org/2000/svg" width="200" height="200" viewBox="0 0 200 200">
  <g id="icn-wr" transform="translate(-640 3691)">
    <g id="Group_82" data-name="Group 82" transform="translate(-30 128)">
      <path id="Path_2" data-name="Path 2" d="M0,0H200V200H0Z" transform="translate(670 -3819)" fill="none"/>
    </g>
    <g id="behavior" transform="translate(670.924 -3662.019)">
      <g id="Group_84" data-name="Group 84" transform="translate(39.871 105.562)">
        <g id="Group_83" data-name="Group 83">
          <path id="Path_48" data-name="Path 48" d="M134.4,221.963H72.084v-6.272a20.75,20.75,0,0,1,20.75-20.75h20.813a20.75,20.75,0,0,1,20.75,20.75v6.272Z" transform="translate(-72.084 -194.941)" fill="#29c17e"/>
        </g>
      </g>
      <g id="Group_86" data-name="Group 86" transform="translate(85.96 109.314)">
        <g id="Group_85" data-name="Group 85">
          <path id="Path_49" data-name="Path 49" d="M172.911,220.722a1.558,1.558,0,0,1-1.558-1.558,14.972,14.972,0,0,0-9.525-13.992,1.558,1.558,0,1,1,1.146-2.9,18.071,18.071,0,0,1,11.5,16.889A1.558,1.558,0,0,1,172.911,220.722Z" transform="translate(-160.842 -202.165)" fill="#66cfb3"/>
        </g>
      </g>
      <g id="Group_88" data-name="Group 88" transform="translate(56.565 121.889)">
        <g id="Group_87" data-name="Group 87">
          <circle id="Ellipse_9" data-name="Ellipse 9" cx="4.673" cy="4.673" r="4.673" fill="#66cfb3"/>
        </g>
      </g>
      <g id="Group_90" data-name="Group 90" transform="translate(39.871 105.562)">
        <g id="Group_89" data-name="Group 89">
          <path id="Path_50" data-name="Path 50" d="M86.623,217.768a20.75,20.75,0,0,1,20.75-20.75H122.7a20.665,20.665,0,0,0-9.056-2.077H92.834a20.75,20.75,0,0,0-20.75,20.75v6.272H86.623Z" transform="translate(-72.084 -194.941)" fill="#009b72"/>
        </g>
      </g>
      <g id="Group_92" data-name="Group 92" transform="translate(48.925 56.298)">
        <g id="Group_91" data-name="Group 91">
          <path id="Path_51" data-name="Path 51" d="M93.763,129.512h7.147v-25.2a4.244,4.244,0,0,0-4.243-4.243h-2.9a4.244,4.244,0,0,0-4.243,4.243v20.957A4.244,4.244,0,0,0,93.763,129.512Z" transform="translate(-89.519 -100.069)" fill="#8c4c17"/>
        </g>
      </g>
      <g id="Group_94" data-name="Group 94" transform="translate(81.822 54.135)">
        <g id="Group_93" data-name="Group 93" transform="translate(0 0)">
          <path id="Path_52" data-name="Path 52" d="M160.018,95.9h-2.9a4.225,4.225,0,0,0-4.244,4.206v3.662a18.5,18.5,0,0,1,7.57,14.915v6.638a4.221,4.221,0,0,0,3.82-4.185V100.109A4.226,4.226,0,0,0,160.018,95.9Z" transform="translate(-152.873 -95.903)" fill="#8c4c17"/>
        </g>
      </g>
      <g id="Group_96" data-name="Group 96" transform="translate(83.753 72.506)">
        <g id="Group_95" data-name="Group 95">
          <ellipse id="Ellipse_10" data-name="Ellipse 10" cx="6.063" cy="6.008" rx="6.063" ry="6.008" fill="#ffeacf"/>
        </g>
      </g>
      <g id="Group_98" data-name="Group 98" transform="translate(45.55 74.68)">
        <g id="Group_97" data-name="Group 97">
          <ellipse id="Ellipse_11" data-name="Ellipse 11" cx="6.063" cy="6.008" rx="6.063" ry="6.008" fill="#ffd59a"/>
        </g>
      </g>
      <g id="Group_100" data-name="Group 100" transform="translate(62.391 87.954)">
        <g id="Group_99" data-name="Group 99">
          <path id="Path_53" data-name="Path 53" d="M124.3,189.995h-.422a8.425,8.425,0,0,1-8.425-8.425V161.031h17.272V181.57A8.425,8.425,0,0,1,124.3,189.995Z" transform="translate(-115.453 -161.031)" fill="#ffeacf"/>
        </g>
      </g>
      <g id="Group_102" data-name="Group 102" transform="translate(62.391 87.954)">
        <g id="Group_101" data-name="Group 101">
          <path id="Path_54" data-name="Path 54" d="M121.432,181.437V161.031h-5.979v20.406a8.6,8.6,0,0,0,8.636,8.558h0a8.688,8.688,0,0,0,2.989-.527A8.564,8.564,0,0,1,121.432,181.437Z" transform="translate(-115.453 -161.031)" fill="#ffd59a"/>
        </g>
      </g>
      <g id="Group_104" data-name="Group 104" transform="translate(52.321 55.468)">
        <g id="Group_103" data-name="Group 103">
          <path id="Path_55" data-name="Path 55" d="M115.237,145.225h-.859A18.318,18.318,0,0,1,96.06,126.908v-10.12A18.318,18.318,0,0,1,114.378,98.47h.859a18.318,18.318,0,0,1,18.318,18.318v10.12A18.317,18.317,0,0,1,115.237,145.225Z" transform="translate(-96.06 -98.47)" fill="#ffeacf"/>
        </g>
      </g>
      <g id="Group_106" data-name="Group 106" transform="translate(52.323 55.468)">
        <g id="Group_105" data-name="Group 105" transform="translate(0)">
          <path id="Path_56" data-name="Path 56" d="M102.641,124.358v-9.29a18.879,18.879,0,0,1,.117-2.1,2.114,2.114,0,0,1,2.108-1.865h27.679A18.753,18.753,0,0,0,114.809,98.47a18.977,18.977,0,0,0-2.376.151l0,0c-.06.008-.119.019-.179.027-.2.027-.395.056-.59.088-.1.016-.189.034-.283.051-.173.032-.346.065-.517.1-.1.021-.2.044-.3.066-.167.038-.333.079-.5.123l-.29.077c-.171.047-.341.1-.51.151-.086.026-.173.052-.259.079-.2.066-.4.136-.6.208-.049.018-.1.034-.149.052q-.372.139-.737.292c-.063.026-.125.056-.188.083-.178.077-.355.156-.53.238-.088.042-.174.085-.261.128-.149.073-.3.147-.443.224-.093.049-.185.1-.277.148q-.209.114-.414.233c-.092.053-.183.106-.274.161-.138.083-.273.168-.408.254-.085.055-.171.108-.256.164-.149.1-.3.2-.441.3-.067.047-.136.092-.2.141q-.31.224-.61.46c-.062.049-.122.1-.184.15-.14.113-.278.226-.414.342-.082.07-.16.141-.241.212q-.171.15-.338.3c-.084.078-.167.157-.249.237q-.157.15-.309.3c-.082.083-.164.166-.245.251-.1.1-.2.21-.294.316-.078.086-.156.171-.233.258-.1.114-.2.23-.294.345-.069.083-.14.164-.208.248-.142.176-.28.355-.416.536-.071.094-.139.19-.207.285-.1.132-.19.263-.282.4-.067.1-.131.2-.2.3-.076.117-.153.233-.226.352s-.13.213-.194.321-.137.232-.2.349-.124.221-.184.333-.126.237-.187.357-.116.225-.171.34-.118.25-.176.375-.1.223-.153.335c-.066.152-.129.307-.191.461s-.133.337-.2.508c-.052.14-.1.278-.154.42h0a18.653,18.653,0,0,0-1.014,6.08v9.3a18.759,18.759,0,0,0,27.7,16.674,18.766,18.766,0,0,1-21.122-18.806Z" transform="translate(-96.063 -98.47)" fill="#ffd59a"/>
        </g>
      </g>
      <g id="Group_108" data-name="Group 108" transform="translate(44.899 48.463)">
        <g id="Group_107" data-name="Group 107">
          <path id="Path_57" data-name="Path 57" d="M119.514,101.793H88.087a6.321,6.321,0,0,1-6.321-6.321V91.3a6.321,6.321,0,0,1,6.321-6.321h31.427a6.321,6.321,0,0,1,6.321,6.321v4.171A6.321,6.321,0,0,1,119.514,101.793Z" transform="translate(-81.766 -84.98)" fill="#a56021"/>
        </g>
      </g>
      <g id="Group_110" data-name="Group 110" transform="translate(81.088 51.06)">
        <g id="Group_109" data-name="Group 109">
          <path id="Path_58" data-name="Path 58" d="M155.185,99.435a1.558,1.558,0,0,1-1.558-1.558V93.706a.61.61,0,0,0-.609-.609,1.558,1.558,0,1,1,0-3.116,3.729,3.729,0,0,1,3.725,3.725v4.171A1.558,1.558,0,0,1,155.185,99.435Z" transform="translate(-151.46 -89.981)" fill="#bf6c0d"/>
        </g>
      </g>
      <g id="Group_115" data-name="Group 115" transform="translate(58.122 76.46)">
        <g id="Group_112" data-name="Group 112">
          <g id="Group_111" data-name="Group 111">
            <ellipse id="Ellipse_12" data-name="Ellipse 12" cx="2.335" cy="2.313" rx="2.335" ry="2.313" fill="#a56021"/>
          </g>
        </g>
        <g id="Group_114" data-name="Group 114" transform="translate(21.224)">
          <g id="Group_113" data-name="Group 113">
            <ellipse id="Ellipse_13" data-name="Ellipse 13" cx="2.335" cy="2.313" rx="2.335" ry="2.313" fill="#a56021"/>
          </g>
        </g>
      </g>
      <g id="Group_117" data-name="Group 117" transform="translate(44.899 48.463)">
        <g id="Group_116" data-name="Group 116">
          <path id="Path_59" data-name="Path 59" d="M92.737,95.5V91.272a6.322,6.322,0,0,1,6.35-6.292H88.116a6.321,6.321,0,0,0-6.35,6.292V95.5a6.322,6.322,0,0,0,6.35,6.292H99.087A6.322,6.322,0,0,1,92.737,95.5Z" transform="translate(-81.766 -84.98)" fill="#8c4c17"/>
        </g>
      </g>
      <g id="Group_119" data-name="Group 119" transform="translate(84.965 9.02)">
        <g id="Group_118" data-name="Group 118">
          <path id="Path_60" data-name="Path 60" d="M198.048,9.02H167.574c-4.777,0-8.649,4.571-8.649,10.21v9.624c0,5.382,3.527,9.787,8,10.179a8.068,8.068,0,0,1-3.937,4.4.914.914,0,0,0,.146,1.641c3.067.7,8.414.688,12.143-6.008h22.771c4.777,0,8.649-4.571,8.649-10.21V19.23C206.7,13.591,202.825,9.02,198.048,9.02Z" transform="translate(-158.925 -9.02)" fill="#29c17e"/>
        </g>
      </g>
      <g id="Group_121" data-name="Group 121" transform="translate(100.834 14.267)">
        <g id="Group_120" data-name="Group 120">
          <path id="Path_61" data-name="Path 61" d="M211.667,29.768a1.315,1.315,0,0,1,.362.938v.47A1.657,1.657,0,0,1,210.62,33h-6.841a1.068,1.068,0,0,0-.908,1.175v3.656c0,1.562-.978,2.828-2.186,2.828a1.158,1.158,0,0,1-.985-1.274v-4.41a4.977,4.977,0,0,0-1.061-3.154l-1.3-1.568h-7.851V20.811h7.851l1.344-1.354v0a1.105,1.105,0,0,1,.77-.333h10.4a1.657,1.657,0,0,1,1.409,1.823v1.027a1.464,1.464,0,0,1-.071.454.267.267,0,0,0,.079.3,1.248,1.248,0,0,1,.491,1.043v1.507a1.379,1.379,0,0,1-.229.778.284.284,0,0,0,.013.324,1.347,1.347,0,0,1,.289.859V28.7a1.4,1.4,0,0,1-.2.731A.287.287,0,0,0,211.667,29.768Z" transform="translate(-189.486 -19.126)" fill="#ffeacf"/>
        </g>
      </g>
      <g id="Group_123" data-name="Group 123" transform="translate(5.076 9.02)">
        <g id="Group_122" data-name="Group 122">
          <path id="Path_62" data-name="Path 62" d="M13.725,9.02H44.2c4.777,0,8.649,4.571,8.649,10.21v9.624c0,5.382-3.527,9.787-8,10.179a8.068,8.068,0,0,0,3.937,4.4.914.914,0,0,1-.146,1.641c-3.067.7-8.414.688-12.143-6.008H13.725c-4.777,0-8.649-4.571-8.649-10.21V19.23C5.076,13.591,8.948,9.02,13.725,9.02Z" transform="translate(-5.076 -9.02)" fill="#29c17e"/>
        </g>
      </g>
      <g id="Group_125" data-name="Group 125" transform="translate(13.373 12.431)">
        <g id="Group_124" data-name="Group 124">
          <path id="Path_63" data-name="Path 63" d="M21.417,26.481a1.315,1.315,0,0,1-.362-.938v-.47a1.657,1.657,0,0,1,1.409-1.823H29.3a1.068,1.068,0,0,0,.908-1.175V18.418c0-1.562.978-2.828,2.186-2.828a1.158,1.158,0,0,1,.985,1.274v4.41a4.977,4.977,0,0,0,1.061,3.154L35.746,26H43.6v9.441H35.746L34.4,36.792v0a1.105,1.105,0,0,1-.77.333h-10.4A1.657,1.657,0,0,1,21.826,35.3V34.273a1.464,1.464,0,0,1,.071-.454.268.268,0,0,0-.079-.3,1.25,1.25,0,0,1-.491-1.043V30.972a1.379,1.379,0,0,1,.229-.778.284.284,0,0,0-.013-.324,1.347,1.347,0,0,1-.289-.859v-1.46a1.4,1.4,0,0,1,.2-.731A.287.287,0,0,0,21.417,26.481Z" transform="translate(-21.055 -15.59)" fill="#ffeacf"/>
        </g>
      </g>
      <g id="Group_127" data-name="Group 127" transform="translate(30.527 20.367)">
        <g id="Group_126" data-name="Group 126">
          <path id="Path_64" data-name="Path 64" d="M55.372,45.256H64.7a1.283,1.283,0,0,0,1.283-1.283V32.156A1.283,1.283,0,0,0,64.7,30.873H55.372a1.283,1.283,0,0,0-1.283,1.283V43.973A1.283,1.283,0,0,0,55.372,45.256Z" transform="translate(-54.089 -30.873)" fill="#ff624b"/>
        </g>
      </g>
      <g id="Group_132" data-name="Group 132" transform="translate(100.834 15.952)">
        <g id="Group_129" data-name="Group 129" transform="translate(0 0)">
          <g id="Group_128" data-name="Group 128">
            <path id="Path_65" data-name="Path 65" d="M202.762,40.142a1.158,1.158,0,0,1-.985-1.274v-4.41a4.977,4.977,0,0,0-1.061-3.154l-1.3-1.568h-7.851V22.371h-2.077v9.441h7.851l1.3,1.568a4.977,4.977,0,0,1,1.061,3.154v4.41a1.158,1.158,0,0,0,.985,1.274,2.363,2.363,0,0,0,2.106-2.079Z" transform="translate(-189.486 -22.371)" fill="#ffd59a"/>
          </g>
        </g>
        <g id="Group_131" data-name="Group 131" transform="translate(15.461 10.112)">
          <g id="Group_130" data-name="Group 130">
            <path id="Path_66" data-name="Path 66" d="M226.169,41.844h-6a1.068,1.068,0,0,0-.908,1.175v.9h5.672a1.656,1.656,0,0,0,1.409-1.823v-.254Z" transform="translate(-219.261 -41.844)" fill="#ffd59a"/>
          </g>
        </g>
      </g>
      <g id="Group_134" data-name="Group 134" transform="translate(94.325 13.481)">
        <g id="Group_133" data-name="Group 133" transform="translate(0 0)">
          <path id="Path_67" data-name="Path 67" d="M187.565,17.612h-9.331a1.283,1.283,0,0,0-1.283,1.283V30.712A1.283,1.283,0,0,0,178.234,32h9.331a1.283,1.283,0,0,0,1.283-1.283V18.9A1.283,1.283,0,0,0,187.565,17.612Z" transform="translate(-176.951 -17.612)" fill="#ff624b"/>
        </g>
      </g>
      <g id="Group_139" data-name="Group 139" transform="translate(13.373 12.432)">
        <g id="Group_136" data-name="Group 136" transform="translate(15.906 10.406)">
          <g id="Group_135" data-name="Group 135">
            <path id="Path_68" data-name="Path 68" d="M52.549,36.67h.385V35.631H51.687Z" transform="translate(-51.687 -35.631)" fill="#ffd59a"/>
          </g>
        </g>
        <g id="Group_138" data-name="Group 138" transform="translate(0 0)">
          <g id="Group_137" data-name="Group 137">
            <path id="Path_69" data-name="Path 69" d="M23.9,36.339V35.312a1.464,1.464,0,0,1,.071-.454.268.268,0,0,0-.079-.3,1.249,1.249,0,0,1-.491-1.043V32.011a1.379,1.379,0,0,1,.229-.778.283.283,0,0,0-.013-.324,1.347,1.347,0,0,1-.289-.859V28.59a1.4,1.4,0,0,1,.2-.731.285.285,0,0,0-.033-.339,1.315,1.315,0,0,1-.362-.938v-.47a1.657,1.657,0,0,1,1.409-1.823h6.841a1.068,1.068,0,0,0,.908-1.175V19.457a3.049,3.049,0,0,1,1.094-2.447v-.145a1.158,1.158,0,0,0-.985-1.274c-1.207,0-2.186,1.266-2.186,2.828v3.656a1.068,1.068,0,0,1-.908,1.175H22.464a1.657,1.657,0,0,0-1.409,1.823v.47a1.314,1.314,0,0,0,.362.938.284.284,0,0,1,.033.339,1.4,1.4,0,0,0-.2.731v1.46a1.352,1.352,0,0,0,.289.859.284.284,0,0,1,.013.324,1.379,1.379,0,0,0-.229.778V32.48a1.249,1.249,0,0,0,.491,1.043.268.268,0,0,1,.079.3,1.479,1.479,0,0,0-.071.454V35.3a1.657,1.657,0,0,0,1.409,1.823h.811A2.251,2.251,0,0,1,23.9,36.339Z" transform="translate(-21.055 -15.591)" fill="#ffd59a"/>
          </g>
        </g>
      </g>
      <g id="Group_141" data-name="Group 141" transform="translate(30.527 20.367)">
        <g id="Group_140" data-name="Group 140">
          <path id="Path_70" data-name="Path 70" d="M58.243,35.272a1.283,1.283,0,0,1,1.283-1.283h6.46V32.156A1.283,1.283,0,0,0,64.7,30.873H55.372a1.283,1.283,0,0,0-1.283,1.283V43.973a1.283,1.283,0,0,0,1.283,1.283h2.871Z" transform="translate(-54.089 -30.873)" fill="#ff4b34"/>
        </g>
      </g>
      <g id="Group_143" data-name="Group 143" transform="translate(94.325 13.482)">
        <g id="Group_142" data-name="Group 142" transform="translate(0 0)">
          <path id="Path_71" data-name="Path 71" d="M181.105,22.012a1.283,1.283,0,0,1,1.283-1.283h6.46V18.9a1.283,1.283,0,0,0-1.283-1.283h-9.331a1.283,1.283,0,0,0-1.283,1.283V30.713A1.283,1.283,0,0,0,178.234,32h2.871Z" transform="translate(-176.951 -17.613)" fill="#ff4b34"/>
        </g>
      </g>
      <g id="Group_148" data-name="Group 148" transform="translate(5.076 9.019)">
        <g id="Group_145" data-name="Group 145">
          <g id="Group_144" data-name="Group 144">
            <path id="Path_72" data-name="Path 72" d="M11.307,28.853V19.229c0-5.639,3.872-10.21,8.649-10.21H13.725c-4.777,0-8.649,4.571-8.649,10.21v9.624c0,5.639,3.872,10.21,8.649,10.21h6.231C15.179,39.063,11.307,34.492,11.307,28.853Z" transform="translate(-5.076 -9.019)" fill="#009b72"/>
          </g>
        </g>
        <g id="Group_147" data-name="Group 147" transform="translate(31.42 30.044)">
          <g id="Group_146" data-name="Group 146">
            <path id="Path_73" data-name="Path 73" d="M71.815,66.878H65.584c3.728,6.7,9.076,6.7,12.143,6.008a.688.688,0,0,0,.38-.243A11.671,11.671,0,0,1,71.815,66.878Z" transform="translate(-65.584 -66.878)" fill="#009b72"/>
          </g>
        </g>
      </g>
      <g id="Group_150" data-name="Group 150" transform="translate(84.965 9.019)">
        <g id="Group_149" data-name="Group 149">
          <path id="Path_74" data-name="Path 74" d="M169.221,43.431a8.068,8.068,0,0,0,3.937-4.4c-4.474-.392-8-4.8-8-10.179V19.229c0-5.639,3.872-10.21,8.649-10.21h-6.231c-4.777,0-8.649,4.571-8.649,10.21v9.624c0,5.382,3.527,9.787,8,10.179a8.068,8.068,0,0,1-3.937,4.4.914.914,0,0,0,.146,1.641,10.666,10.666,0,0,0,5.851-.243A.944.944,0,0,1,169.221,43.431Z" transform="translate(-158.925 -9.019)" fill="#009b72"/>
        </g>
      </g>
    </g>
  </g>
</svg>
