<svg xmlns="http://www.w3.org/2000/svg" width="34.694" height="10.677" viewBox="0 0 34.694 10.677">
  <g id="Group_561" data-name="Group 561" transform="translate(-3920.136 -1366.901)">
    <path id="Path_367" data-name="Path 367" d="M3926.727,1372.4l-.953-4.572a1.138,1.138,0,0,0-1.23-.843h-4.369l-.039.209C3923.539,1368.02,3925.791,1370.011,3926.727,1372.4Z" fill="#f79f1a"/>
    <path id="Path_368" data-name="Path 368" d="M3936.851,1367.078h-2.823l-1.763,10.348h2.819Z" fill="#0650bc"/>
    <path id="Path_369" data-name="Path 369" d="M3928.447,1377.416l4.44-10.331H3929.9l-2.763,7.058-.294-1.066a11.046,11.046,0,0,0-3.906-4.288l2.525,8.63Z" fill="#0650bc"/>
    <path id="Path_370" data-name="Path 370" d="M3944.9,1374.043c.01-1.174-.744-2.071-2.37-2.811-.987-.478-1.59-.8-1.582-1.282,0-.428.51-.888,1.614-.888a5.2,5.2,0,0,1,2.111.4l.255.117.383-2.242a7.32,7.32,0,0,0-2.529-.432c-2.787,0-4.749,1.4-4.766,3.414-.018,1.488,1.4,2.316,2.471,2.812,1.1.505,1.466.829,1.459,1.282-.007.693-.874,1.009-1.685,1.009a5.928,5.928,0,0,1-2.657-.542l-.36-.166-.4,2.319a8.912,8.912,0,0,0,3.141.549C3942.956,1377.578,3944.882,1376.194,3944.9,1374.043Z" fill="#0650bc"/>
    <path id="Path_371" data-name="Path 371" d="M3948.257,1375.875l3.613,0c.084.36.343,1.551.343,1.551h2.617l-2.284-10.341h-2.178a1.4,1.4,0,0,0-1.477.857l-4.189,9.484h2.964S3948.147,1376.155,3948.257,1375.875Zm1.934-5.011c-.014.028.234-.6.375-.988l.191.892s.539,2.472.652,2.989h-2.341C3949.3,1373.162,3950.191,1370.864,3950.191,1370.864Z" fill="#0650bc"/>
  </g>
</svg>
